<?xml version="1.0" encoding="UTF-8"?>
<svg version="1.1" xmlns="http://www.w3.org/2000/svg" width="4096" height="4096">
<path d="M0 0 C0 216.81 0 433.62 0 657 C-13.53 663.6 -27.06 670.2 -41 677 C-57.25344557 685.27583696 -73.21119873 693.88273156 -89 703 C-90.71026367 703.98274902 -90.71026367 703.98274902 -92.45507812 704.98535156 C-107.83093409 713.82652097 -122.95295226 722.95038175 -137.70849609 732.80371094 C-140.83295044 734.8885345 -143.96330544 736.96413182 -147.09555054 739.03721619 C-150.75339908 741.45899978 -154.4079197 743.88578865 -158.0625 746.3125 C-158.75388062 746.77095306 -159.44526123 747.22940613 -160.15759277 747.70175171 C-172.87025836 756.13892082 -185.28730889 764.93728387 -197.5625 774 C-198.77135864 774.89199097 -198.77135864 774.89199097 -200.00463867 775.80200195 C-206.73788484 780.78295253 -213.39560655 785.84940385 -220 791 C-221.14971491 791.89065685 -222.29945528 792.78128084 -223.44921875 793.671875 C-230.4140276 799.08606815 -237.21379983 804.65824523 -243.921875 810.38671875 C-246.7270732 812.77882269 -249.57463157 815.11455851 -252.4375 817.4375 C-262.01166373 825.24690496 -271.36743443 833.28158601 -280.38623047 841.7277832 C-283.12877515 844.29354994 -285.90775517 846.80301739 -288.74487305 849.26416016 C-302.01244697 860.85601629 -314.47505384 873.31465491 -326.91235352 885.78198242 C-329.58690335 888.46195281 -332.26683976 891.13645484 -334.94726562 893.81054688 C-336.67480033 895.53874152 -338.40202526 897.26724589 -340.12890625 898.99609375 C-340.91753555 899.78269882 -341.70616486 900.56930389 -342.51869202 901.37974548 C-346.65273817 905.53119768 -350.63402874 909.75739575 -354.44569397 914.20758057 C-357.15676593 917.3339778 -360.02878266 920.30966879 -362.875 923.3125 C-367.7652533 928.50758684 -372.40429718 933.81352758 -376.859375 939.390625 C-379.15120465 942.18431516 -381.55231812 944.84208778 -384 947.5 C-388.8936826 952.8296789 -393.46207844 958.36696488 -398 964 C-399.03294233 965.26506799 -400.06685658 966.5293428 -401.1015625 967.79296875 C-407.88488829 976.08526096 -414.54068374 984.45175105 -421 993 C-421.55413574 993.73202637 -422.10827148 994.46405273 -422.67919922 995.21826172 C-427.14613952 1001.12576325 -431.58046447 1007.05697463 -436 1013 C-436.52400391 1013.70125 -437.04800781 1014.4025 -437.58789062 1015.125 C-448.97209972 1030.4034143 -459.37120983 1046.37339367 -469.85943604 1062.2722168 C-470.83474937 1063.7496701 -471.81240065 1065.2255796 -472.79052734 1066.70117188 C-486.80940272 1087.86208964 -499.75045946 1109.77506269 -512 1132 C-512.51981445 1132.94198242 -513.03962891 1133.88396484 -513.57519531 1134.85449219 C-527.66598863 1160.46388114 -541.0142313 1186.33426557 -553 1213 C-553.56069581 1214.2423565 -554.12140561 1215.48470669 -554.68212891 1216.72705078 C-561.77567231 1232.4779605 -568.45918499 1248.37371825 -574.8125 1264.4375 C-575.2575589 1265.55943756 -575.2575589 1265.55943756 -575.71160889 1266.70404053 C-581.11757428 1280.36682782 -586.01956045 1294.16544569 -591 1308 C-812.1 1308 -1033.2 1308 -1261 1308 C-1259.68311938 1300.09871628 -1258.26977554 1292.5217292 -1256.26953125 1284.80859375 C-1255.86945107 1283.24541916 -1255.86945107 1283.24541916 -1255.46128845 1281.65066528 C-1254.58573566 1278.24431952 -1253.70048586 1274.84062478 -1252.8125 1271.4375 C-1252.35006897 1269.66051224 -1252.35006897 1269.66051224 -1251.8782959 1267.84762573 C-1227.29564755 1173.62804045 -1194.89115397 1081.73470964 -1122 922 C-1121.44538086 920.86739746 -1120.89076172 919.73479492 -1120.31933594 918.56787109 C-1114.22563195 906.15595824 -1107.87359019 893.92517167 -1101.19140625 881.8203125 C-1098.24784449 876.4792838 -1095.38609655 871.096898 -1092.52856445 865.70947266 C-1085.59277081 852.64076833 -1078.32667102 839.80388562 -1070.79882812 827.06542969 C-1068.23132301 822.6900776 -1065.71251677 818.28727749 -1063.19067383 813.88549805 C-1057.3988625 803.78170541 -1051.51805085 793.76801612 -1045.24658203 783.95458984 C-1043.4025657 781.06324736 -1041.57835767 778.15950532 -1039.75146484 775.25732422 C-1038.22457243 772.83465493 -1036.69287151 770.41508274 -1035.16015625 767.99609375 C-1033.07410002 764.70310038 -1030.99977423 761.40315159 -1028.93359375 758.09765625 C-1009.81344523 727.63187153 -989.19924332 698.04896313 -968 669 C-967.4328125 668.22269531 -966.865625 667.44539063 -966.28125 666.64453125 C-958.00135169 655.31511682 -949.57717715 644.10582607 -941 633 C-940.14921875 631.89591797 -940.14921875 631.89591797 -939.28125 630.76953125 C-931.45853653 620.62444972 -923.49055237 610.61357852 -915.38085938 600.69677734 C-913.52595217 598.4174978 -911.69988077 596.1158556 -909.875 593.8125 C-906.38013861 589.42736866 -902.76584807 585.15124598 -899.13183594 580.8815918 C-896.25350579 577.49593365 -893.42183119 574.07870163 -890.625 570.625 C-885.97913896 564.91912076 -881.15792882 559.37448847 -876.32421875 553.828125 C-874.18584726 551.37256691 -872.06267 548.90555446 -869.95703125 546.421875 C-864.28972206 539.73948362 -858.49276142 533.22018851 -852.50170898 526.82568359 C-849.80354639 523.94563611 -847.13564425 521.05588137 -844.5625 518.0625 C-840.09997002 512.89651702 -835.39246468 507.95427708 -830.72265625 502.9765625 C-828.36367686 500.46186482 -826.01656276 497.93727724 -823.68359375 495.3984375 C-816.0056594 487.06454198 -808.08632423 479.0063839 -800.01513672 471.05200195 C-795.66415164 466.74656557 -791.51534061 462.36536753 -787.52709961 457.72290039 C-785.5030463 455.43932818 -783.29709083 453.44386527 -781 451.4375 C-773.43970171 444.70196152 -766.38472677 437.43782335 -759.2734375 430.23608398 C-754.62014354 425.53541967 -749.93270806 420.94956645 -744.90380859 416.64990234 C-741.39443849 413.60856826 -738.05469302 410.38430028 -734.6875 407.1875 C-725.61422897 398.6122066 -716.43840919 390.17363074 -707 382 C-705.89969604 381.04562312 -704.79944009 380.09119087 -703.69921875 379.13671875 C-701.13510203 376.91292036 -698.56982928 374.69046384 -696.00390625 372.46875 C-693.38451708 370.20043926 -690.7673623 367.92959776 -688.15234375 365.65625 C-677.34416954 356.26316664 -666.54248326 346.91387684 -655.23242188 338.12670898 C-651.21457818 334.99236727 -647.30595048 331.75389826 -643.4375 328.4375 C-638.27400887 324.02063122 -632.97034068 319.82496054 -627.55859375 315.71484375 C-624.97118365 313.74917459 -622.40492576 311.75863229 -619.84765625 309.75390625 C-609.83052146 301.90182948 -599.6754748 294.26890956 -589.39990234 286.75878906 C-586.98623563 284.98991267 -584.57991216 283.21149835 -582.17578125 281.4296875 C-572.57696092 274.31851191 -562.89932468 267.33845298 -553.11474609 260.48535156 C-550.93244298 258.95254942 -548.75646224 257.41113389 -546.58203125 255.8671875 C-538.47175917 250.11104749 -530.30405478 244.47460531 -522 239 C-520.87697048 238.24964546 -519.75460401 237.49829786 -518.6328125 236.74609375 C-495.34605997 221.13674713 -471.78822794 205.91636729 -447.68261719 191.60107422 C-444.80422345 189.88315411 -441.93654362 188.14828835 -439.0703125 186.41015625 C-425.62775562 178.26944122 -412.0525382 170.42338391 -398.296875 162.82421875 C-395.45527698 161.25191274 -392.61788499 159.67233232 -389.78248596 158.08888245 C-372.37005685 148.36781112 -354.78803717 139.01748549 -337 130 C-335.70077606 129.34040283 -335.70077606 129.34040283 -334.37530518 128.66748047 C-309.76979814 116.17945502 -285.13304775 103.85289362 -259.88232422 92.71679688 C-256.5830001 91.26107489 -253.29271416 89.78602476 -250.00456238 88.30526733 C-212.28325807 71.32539738 -173.89960675 56.05790097 -135 42 C-134.20887817 41.71358643 -133.41775635 41.42717285 -132.60266113 41.13208008 C-97.22463714 28.33557686 -61.48113945 16.63064205 -25.375 6.0625 C-23.79578262 5.59833176 -23.79578262 5.59833176 -22.18466187 5.12478638 C-19.21618031 4.25476301 -16.24541652 3.39314682 -13.2734375 2.53515625 C-12.39024338 2.27657837 -11.50704926 2.01800049 -10.59709167 1.75158691 C-9.78307388 1.51911255 -8.96905609 1.28663818 -8.13037109 1.04711914 C-7.42528412 0.84365372 -6.72019714 0.64018829 -5.9937439 0.43055725 C-4 0 -4 0 0 0 Z " fill="#ED2424" transform="translate(3029,741)"/>
<path d="M0 0 C543.51 0 1087.02 0 1647 0 C1645.58840398 2.82319204 1643.87339865 3.14981597 1641.0078125 4.44140625 C1639.92773926 4.93398926 1638.84766602 5.42657227 1637.73486328 5.93408203 C1635.94798096 6.74014893 1635.94798096 6.74014893 1634.125 7.5625 C1631.56017722 8.73324489 1628.99847384 9.91070611 1626.4375 11.08984375 C1625.42262009 11.55668579 1625.42262009 11.55668579 1624.38723755 12.03295898 C1611.12286691 18.15476804 1598.02259992 24.63104318 1584.90740967 31.06451416 C1583.15894946 31.92204351 1581.40982973 32.7782278 1579.66064453 33.63427734 C1567.70375985 39.49694513 1555.9594452 45.67414424 1544.296875 52.1015625 C1539.42077755 54.7835929 1534.4997744 57.37038825 1529.5625 59.9375 C1519.62742146 65.12686021 1509.88664194 70.64392574 1500.15429688 76.20214844 C1496.87294605 78.07241682 1493.5853643 79.93137771 1490.296875 81.7890625 C1439.96937169 110.28682957 1391.29057626 141.72110424 1344 175 C1342.47923627 176.0665055 1340.95840635 177.13291664 1339.4375 178.19921875 C1335.28112269 181.11805745 1331.13735943 184.05427861 1327 187 C1326.29633301 187.50031738 1325.59266602 188.00063477 1324.86767578 188.51611328 C1314.09871195 196.18752009 1303.53676456 204.10542203 1293.04296875 212.1484375 C1289.26867319 215.03923557 1285.4703982 217.8944087 1281.65307617 220.72802734 C1274.98453872 225.67952615 1268.48926064 230.79806919 1262.07348633 236.07275391 C1257.25779092 240.01869556 1252.34396937 243.8120912 1247.375 247.5625 C1240.76920553 252.559104 1234.4402862 257.79639689 1228.1953125 263.234375 C1225.34408588 265.71621883 1222.4368674 268.11968181 1219.5 270.5 C1213.50708248 275.36979388 1207.66045371 280.4021624 1201.81152344 285.44287109 C1200.00637604 286.99451936 1198.19561441 288.53933585 1196.3828125 290.08203125 C1189.97245758 295.54196051 1183.65652625 301.07483798 1177.44921875 306.765625 C1175.30075301 308.72562883 1173.13116193 310.65344491 1170.9375 312.5625 C1163.44061304 319.08813035 1156.11372905 325.79764998 1148.82421875 332.55297852 C1145.51796178 335.61311819 1142.18038755 338.63249709 1138.8125 341.625 C1134.58172862 345.41006613 1130.57559485 349.37732987 1126.6171875 353.4453125 C1124.63713752 355.3780777 1122.65596599 357.16241094 1120.5534668 358.95092773 C1114.96435604 363.82674039 1109.76316431 369.09248892 1104.52734375 374.33984375 C1103.43468011 375.43183191 1102.34186822 376.52367175 1101.24891663 377.6153717 C1098.97055162 379.89227122 1096.69398217 382.17094653 1094.41870117 384.45092773 C1091.52190105 387.35342441 1088.6206332 390.25140706 1085.71799374 393.14806271 C1083.46406535 395.3983543 1081.21255274 397.65105092 1078.96173286 399.90445137 C1077.89369362 400.97315128 1076.82492892 402.04112674 1075.75538445 403.10832024 C1070.47010497 408.3845256 1065.24959622 413.67511854 1060.41029358 419.36952209 C1057.43082619 422.81416356 1054.10018022 425.91394167 1050.84375 429.09375 C1048.02583949 431.90766347 1045.43981479 434.90275887 1042.83398438 437.91210938 C1039.20364255 442.04505443 1035.38798881 446.00690665 1031.60546875 450 C1027.83736882 453.99434196 1024.16694898 458.05379722 1020.56738281 462.20068359 C1018.62031046 464.43587413 1016.62505531 466.62470003 1014.625 468.8125 C1011.49577173 472.27530082 1008.49499651 475.80679003 1005.5625 479.4375 C1002.48663412 483.24087503 999.31246834 486.90082652 996 490.5 C991.96045182 494.89378548 988.15320381 499.41838824 984.40625 504.0625 C981.70221004 507.36353579 978.91882101 510.58759156 976.125 513.8125 C971.08827846 519.64263929 966.29809772 525.63310385 961.5703125 531.71484375 C959.32388983 534.6006073 957.01906507 537.43233372 954.6875 540.25 C948.91750439 547.26229004 943.38862501 554.46127817 937.83056641 561.64160156 C936.05394632 563.93049861 934.26891853 566.21252617 932.48046875 568.4921875 C920.10966204 584.27736461 908.33166913 600.48175147 896.61767578 616.75732422 C894.97790627 619.0306298 893.33168691 621.29912929 891.68359375 623.56640625 C885.78924994 631.68315074 879.97960229 639.84456065 874.33740234 648.13916016 C871.09026903 652.90973097 871.09026903 652.90973097 870 654 C868.10119315 654.09808985 866.19867478 654.12447172 864.29733604 654.1241985 C863.04801578 654.12644579 861.79869553 654.12869308 860.51151708 654.13100848 C859.10429114 654.12844217 857.69706536 654.12578523 856.28983974 654.12304783 C854.80495164 654.12378656 853.3200637 654.12496418 851.83517626 654.12654433 C847.7169833 654.12963404 843.59881475 654.12642121 839.4806236 654.12226619 C835.01470266 654.1188495 830.54878434 654.12119943 826.08286291 654.12284368 C818.24330116 654.12492357 810.40374697 654.1232632 802.5641861 654.11920547 C790.9069124 654.1131884 779.2496435 654.11286799 767.59236853 654.11374746 C747.98618326 654.11506366 728.38000135 654.11171127 708.77381706 654.10573006 C689.35147014 654.09982007 669.92912462 654.09596554 650.50677681 654.09487724 C649.30072385 654.0948085 648.09467089 654.09473976 646.85207087 654.09466894 C640.72754076 654.09433062 634.60301064 654.09402923 628.47848053 654.09374207 C585.05913906 654.09163971 541.63979942 654.08489693 498.22045898 654.07543945 C456.03002939 654.06626024 413.83960031 654.05919097 371.64916992 654.05493164 C368.99769555 654.054661 366.34622117 654.05439029 363.69474679 654.05411953 C342.15161358 654.05193087 320.60848036 654.04988825 299.06534713 654.04788104 C199.37689635 654.03848757 99.68845035 654.01841876 0 654 C0 438.18 0 222.36 0 0 Z " fill="#F4811E" transform="translate(1067,742)"/>
<path d="M0 0 C216.48 0 432.96 0 656 0 C656 216.15 656 432.3 656 655 C439.52 655 223.04 655 0 655 C0 438.85 0 222.7 0 0 Z " fill="#ED2425" transform="translate(1720,2700)"/>
<path d="M0 0 C46.53 0 93.06 0 141 0 C141.33 7.92 141.66 15.84 142 24 C144.124375 22.659375 146.24875 21.31875 148.4375 19.9375 C161.94069418 11.71771031 176.60740302 6.44972975 192 3 C192.73476562 2.83483887 193.46953125 2.66967773 194.2265625 2.49951172 C230.09311129 -5.0533961 274.01558661 -2.53403584 305.31640625 17.82519531 C309.59519694 20.81091758 313.33785812 24.30145512 317 28 C317.86625 28.825 318.7325 29.65 319.625 30.5 C320.800625 31.7375 320.800625 31.7375 322 33 C322.88751953 33.89525391 322.88751953 33.89525391 323.79296875 34.80859375 C329.82933505 41.17188125 333.98396416 48.28114478 338 56 C338.53625 57.01835937 339.0725 58.03671875 339.625 59.0859375 C351.45730864 83.05868782 355.18030735 110.70146409 355.12025452 137.15458679 C355.12069143 138.55826312 355.12156853 139.96193937 355.12284368 141.36561519 C355.12506511 145.19450489 355.1210998 149.02336627 355.11606562 152.85225236 C355.11172731 156.99183864 355.11320994 161.13142345 355.1139679 165.27101135 C355.11449099 172.43376223 355.11136659 179.59650397 355.10573006 186.75925255 C355.09758601 197.11524947 355.09499686 207.47124198 355.09374207 217.82724176 C355.09155611 234.63116823 355.08490839 251.43508984 355.07543945 268.23901367 C355.06625353 284.55769832 355.05917847 300.87638165 355.05493164 317.19506836 C355.05453756 318.70514018 355.05453756 318.70514018 355.05413551 320.2457185 C355.05283042 325.2963576 355.05156673 330.3469967 355.05032361 335.39763582 C355.0399652 377.26509487 355.02153454 419.13254491 355 461 C308.8 461 262.6 461 215 461 C214.97421875 438.02761719 214.9484375 415.05523438 214.921875 391.38671875 C214.8967156 376.85350762 214.87057747 362.3203082 214.83984375 347.78710938 C214.82375189 340.15323954 214.80790846 332.51936925 214.79248047 324.88549805 C214.79053653 323.92874009 214.78859259 322.97198213 214.78658974 321.98623151 C214.75558406 306.54780787 214.7385987 291.1093991 214.72680578 275.6709502 C214.71438703 259.82243082 214.68686927 243.97398931 214.64538693 228.1255191 C214.62027228 218.3491606 214.60688124 208.57293127 214.60857043 198.79654006 C214.60860022 192.08902648 214.59394024 185.38164431 214.56783572 178.67418196 C214.55321371 174.80650313 214.54496614 170.93909375 214.55419731 167.07139206 C214.56405234 162.8710852 214.54292106 158.6714873 214.51898193 154.47123718 C214.52674235 153.25817498 214.53450277 152.04511279 214.54249835 150.79529113 C214.42610441 139.23897438 211.5704108 130.556148 203.515625 122.16796875 C193.65925443 113.67373635 182.85098435 113.22823402 170.45214844 113.7734375 C162.29927586 114.52670968 154.28439777 118.72654382 149 125 C144.68866477 131.40936468 141.75660317 137.93044484 141.73828697 145.75146294 C141.73082148 146.88157921 141.72335599 148.01169548 141.71566427 149.1760577 C141.717599 150.40757505 141.71953374 151.6390924 141.7215271 152.90792847 C141.7128385 154.88184875 141.7128385 154.88184875 141.70397437 156.89564621 C141.68818945 160.54201097 141.68474452 164.18829864 141.68332577 167.83469343 C141.67962909 171.76920734 141.66447226 175.70367909 141.65071106 179.63816833 C141.62844284 186.45286492 141.61342692 193.26754649 141.60334396 200.08227158 C141.58875523 209.93520109 141.56321785 219.78807833 141.53501268 229.64097716 C141.48954823 245.62684853 141.45293198 261.61272743 141.421875 277.59863281 C141.39168804 293.12696659 141.35731437 308.65528185 141.31738281 324.18359375 C141.3149013 325.15060424 141.3124198 326.11761472 141.30986309 327.11392856 C141.29042323 334.67664481 141.27074063 342.23936043 141.25098133 349.80207586 C141.15420033 386.86802809 141.07859101 423.93399612 141 461 C94.47 461 47.94 461 0 461 C0 308.87 0 156.74 0 0 Z " fill="#008061" transform="translate(2674,2147)"/>
<path d="M0 0 C42.57 0 85.14 0 129 0 C139.38050931 57.66949619 139.38050931 57.66949619 144.00808811 83.82077122 C144.70952204 87.78374363 145.41179754 91.74656693 146.11395264 95.70941162 C147.45339761 103.26969827 148.79214463 110.83010831 150.13061643 118.3905673 C151.67362505 127.10616537 153.21744149 135.8216203 154.7612958 144.53706861 C157.66613802 160.93576252 160.57019288 177.33459578 163.47385025 193.73349953 C165.30069433 204.05088972 167.12774477 214.36824333 168.95507812 224.68554688 C169.2960553 226.61073874 169.2960553 226.61073874 169.6439209 228.57482338 C170.08602761 231.07098669 170.52813572 233.56714974 170.97024536 236.06331253 C174.98107977 258.70871283 178.99101924 281.35427147 183 304 C185.86444763 289.99149943 188.4882242 275.95347695 190.96728516 261.87207031 C191.34553982 259.73337432 191.72399444 257.59471369 192.10263062 255.45608521 C193.12154458 249.69784389 194.13772948 243.93912404 195.15342379 238.18031406 C196.2307526 232.0750502 197.31075423 225.97025915 198.39047241 219.86541748 C200.32522473 208.92403551 202.25813419 197.98232914 204.18998055 187.04043373 C207.27544127 169.5646188 210.36390813 152.08933525 213.4529171 134.61414719 C213.78609977 132.72925075 213.78609977 132.72925075 214.1260134 130.80627561 C214.57082899 128.2898483 215.01565055 125.77342205 215.46047819 123.25699687 C216.72991709 116.07523692 217.99863142 108.89334948 219.26671016 101.71134925 C221.4286852 89.46678211 223.59432773 77.22287026 225.76380157 64.97962952 C226.63444854 60.06569906 227.50359734 55.15150532 228.37194061 50.23716736 C229.5324421 43.66983314 230.69654778 37.1031459 231.86266208 30.53680563 C232.30951524 28.01763317 232.75529015 25.49826919 233.19995046 22.97870874 C233.81434746 19.49852808 234.43261248 16.01905615 235.05184937 12.53973389 C235.23496414 11.49737186 235.41807891 10.45500983 235.60674262 9.38106108 C235.77632428 8.43279212 235.94590595 7.48452315 236.12062645 6.50751877 C236.26714161 5.68061373 236.41365678 4.8537087 236.56461179 4.00174594 C237 2 237 2 238 0 C280.24 0 322.48 0 366 0 C363.70303116 13.78181302 363.70303116 13.78181302 362.1184082 20.57202148 C361.8507334 21.7392649 361.8507334 21.7392649 361.57765102 22.930089 C360.98871529 25.49454215 360.39473778 28.05779926 359.80078125 30.62109375 C359.37362234 32.47703358 358.94681334 34.33305398 358.52032471 36.18914795 C357.60350769 40.17639196 356.68456681 44.16313804 355.76394653 48.14950562 C354.28466424 54.55557378 352.81057225 60.962829 351.33764648 67.37036133 C351.08696946 68.46083613 350.83629244 69.55131094 350.57801914 70.67483044 C350.06601928 72.90217622 349.55404031 75.1295268 349.04208183 77.3568821 C348.25941092 80.7614055 347.47630641 84.16582894 346.69313049 87.57023621 C341.52133913 110.05634458 336.394245 132.55255844 331.27608871 155.05092621 C330.07216101 160.34278132 328.86770282 165.63451569 327.66333008 170.92626953 C325.72721651 179.43352038 323.79148776 187.94085872 321.85595703 196.44824219 C319.08089968 208.6454435 316.30442182 220.84232112 313.52734375 233.0390625 C313.30114727 234.03252623 313.07495079 235.02598995 312.84189987 236.04955864 C310.30510237 247.19115114 307.76772631 258.33261165 305.22949219 269.47387695 C304.27146302 273.67919435 303.31346289 277.88451837 302.35546875 282.08984375 C302.11302052 283.15407625 301.87057228 284.21830875 301.62077713 285.31479073 C298.07331103 300.88719869 294.53060708 316.46068488 290.99061394 332.0347929 C288.15467658 344.51118575 285.31671312 356.98711689 282.47757149 369.46278095 C280.55717865 377.90171274 278.6384897 386.34102833 276.72198993 394.78084511 C275.40432752 400.58280893 274.08458836 406.38429802 272.76330251 412.18543774 C271.99544445 415.55704461 271.22849234 418.92885071 270.46401405 422.30122566 C269.623543 426.00658895 268.77957622 429.71114027 267.93481445 433.41552734 C267.69540131 434.47486638 267.45598816 435.53420542 267.20932007 436.62564564 C265.33482506 444.81993153 263.17031592 452.86131529 261 461 C209.52 461 158.04 461 105 461 C94.27847368 414.43570684 94.27847368 414.43570684 90.859375 399.546875 C90.62333305 398.51900627 90.38729111 397.49113754 90.14409637 396.43212128 C84.79821646 373.14839582 79.48785259 349.85662573 74.1875 326.5625 C73.95494884 325.54049751 73.72239769 324.51849503 73.48279953 323.46552277 C71.520489 314.84147207 69.55835813 306.21738049 67.59646416 297.59323502 C61.55401851 271.03191812 55.50009948 244.47321884 49.44545078 217.91468167 C47.49378145 209.35372808 45.54238918 200.79271136 43.59111786 192.23166704 C37.36811878 164.92892356 31.14356287 137.62653661 24.91429532 110.32522255 C24.7299329 109.51720804 24.54557049 108.70919353 24.35562134 107.87669373 C24.17128945 107.06881407 23.98695757 106.26093441 23.79703987 105.42857355 C22.51151465 99.79434785 21.22619117 94.16007617 19.94100952 88.52577209 C19.76203648 87.74114493 19.58306344 86.95651777 19.39866698 86.14811403 C18.50473807 82.22904379 17.61083786 78.30996701 16.716959 74.39088535 C14.79923334 65.9830872 12.88080708 57.57544947 10.96150643 49.16801071 C9.65867766 43.46076136 8.35661558 37.75333745 7.05516571 32.04577351 C6.30322799 28.74824599 5.55092029 25.45080394 4.79767036 22.1535759 C3.98204628 18.58250733 3.16773204 15.01114264 2.35375977 11.43969727 C2.11251373 10.38492282 1.8712677 9.33014837 1.62271118 8.24341106 C1.40674789 7.29458459 1.19078461 6.34575811 0.96827698 5.36817932 C0.77993569 4.54282968 0.59159441 3.71748003 0.39754581 2.86711979 C0 1 0 1 0 0 Z " fill="#007F61" transform="translate(1969,2146)"/>
<path d="M0 0 C85.8 0 171.6 0 260 0 C260 33.99 260 67.98 260 103 C220.4 103 180.8 103 140 103 C140 128.41 140 153.82 140 180 C179.6 180 219.2 180 260 180 C260 208.71 260 237.42 260 267 C220.4 267 180.8 267 140 267 C140 298.02 140 329.04 140 361 C179.6 361 219.2 361 260 361 C260 394 260 427 260 461 C174.2 461 88.4 461 0 461 C0 308.87 0 156.74 0 0 Z " fill="#008061" transform="translate(2371,2147)"/>
<path d="M0 0 C85.8 0 171.6 0 260 0 C260 33.99 260 67.98 260 103 C220.4 103 180.8 103 140 103 C140 128.41 140 153.82 140 180 C179.6 180 219.2 180 260 180 C260 208.71 260 237.42 260 267 C220.4 267 180.8 267 140 267 C140 298.02 140 329.04 140 361 C179.6 361 219.2 361 260 361 C260 394 260 427 260 461 C174.2 461 88.4 461 0 461 C0 308.87 0 156.74 0 0 Z " fill="#008061" transform="translate(1673,2147)"/>
<path d="M0 0 C85.8 0 171.6 0 260 0 C260 33.99 260 67.98 260 103 C220.4 103 180.8 103 140 103 C140 128.41 140 153.82 140 180 C179.6 180 219.2 180 260 180 C260 208.71 260 237.42 260 267 C220.4 267 180.8 267 140 267 C140 298.02 140 329.04 140 361 C179.6 361 219.2 361 260 361 C260 394 260 427 260 461 C174.2 461 88.4 461 0 461 C0 308.87 0 156.74 0 0 Z " fill="#008061" transform="translate(1067,2147)"/>
<path d="M0 0 C46.2 0 92.4 0 140 0 C140 119.13 140 238.26 140 361 C179.6 361 219.2 361 260 361 C260 394 260 427 260 461 C174.2 461 88.4 461 0 461 C0 308.87 0 156.74 0 0 Z " fill="#008061" transform="translate(1370,2147)"/>
<path d="M0 0 C14.10509073 12.04434698 23.03199155 27.32214812 26.25 45.625 C27.82064833 67.28478213 24.34442396 87.53898064 10.0390625 104.6171875 C9.44867187 105.27976562 8.85828125 105.94234375 8.25 106.625 C7.68023438 107.28757812 7.11046875 107.95015625 6.5234375 108.6328125 C-2.42699575 118.34498475 -14.24799578 124.74056527 -26.75 128.625 C-27.53117187 128.86992187 -28.31234375 129.11484375 -29.1171875 129.3671875 C-47.23573453 133.94384471 -66.35791644 130.17249159 -82.55859375 121.546875 C-87.35783387 118.65675733 -91.59341528 115.37041177 -95.75 111.625 C-96.70132813 110.79548828 -96.70132813 110.79548828 -97.671875 109.94921875 C-110.63191556 97.93537584 -118.04824362 79.13381035 -118.953125 61.71484375 C-119.36797109 39.65401548 -112.52657135 20.30117071 -97.328125 4.04296875 C-70.21628639 -21.38464958 -29.1251257 -23.0855362 0 0 Z M-89.52734375 19.62890625 C-99.24686445 31.87105065 -103.59250045 46.64569675 -102.5 62.1796875 C-100.53237152 78.23694136 -93.99004903 93.40077691 -81.125 103.6875 C-69.3439099 112.04827362 -55.33383148 117.2917236 -40.75 115.625 C-23.59476414 112.67808832 -10.44730873 105.23346612 0.12890625 91.1171875 C9.43047127 76.61700343 11.84025977 57.98994815 8.1875 41.25 C3.67652983 26.22742027 -5.99445598 13.29298411 -19.75 5.625 C-44.80879848 -5.63245323 -70.94118775 -1.32647403 -89.52734375 19.62890625 Z " fill="#007E5E" transform="translate(2587.75,2723.375)"/>
<path d="M0 0 C38.16216216 0 38.16216216 0 47.375 6.3125 C52.75756857 11.82322496 55.10240498 17.52456057 55.3125 25.1875 C55.21023719 32.86743686 52.86635092 38.33953987 47.5625 43.875 C44.93550704 46.39837607 42.13098415 48.15265839 39 50 C39.41362793 50.69561035 39.82725586 51.3912207 40.25341797 52.10791016 C42.13321223 55.27679669 44.00417033 58.45081346 45.875 61.625 C46.85146484 63.26662109 46.85146484 63.26662109 47.84765625 64.94140625 C48.47285156 66.00488281 49.09804687 67.06835938 49.7421875 68.1640625 C50.60626221 69.62513428 50.60626221 69.62513428 51.48779297 71.11572266 C53 74 53 74 55 80 C49.06 80 43.12 80 37 80 C34.00520833 74.75911458 31.01041667 69.51822917 28.015625 64.27734375 C27.49419922 63.37483887 26.97277344 62.47233398 26.43554688 61.54248047 C25.55211208 59.97783932 24.69741733 58.39603539 23.89257812 56.78955078 C22.85888053 54.66163787 22.85888053 54.66163787 21 52 C19.35 51.67 17.7 51.34 16 51 C16 60.57 16 70.14 16 80 C10.72 80 5.44 80 0 80 C0 53.6 0 27.2 0 0 Z M16 14 C16 21.59 16 29.18 16 37 C26.92181754 37.40419249 26.92181754 37.40419249 36.375 33.4375 C38.80296039 29.79555941 39.31620062 26.34399419 39 22 C37.36525759 18.54189105 36.21225894 16.63746237 32.80859375 14.84765625 C29.32737024 13.79699491 26.31787609 13.8071425 22.6875 13.875 C20.480625 13.91625 18.27375 13.9575 16 14 Z " fill="#007E5E" transform="translate(2517,2740)"/>
</svg>
