<?xml version="1.0" encoding="UTF-8"?>
<svg version="1.1" xmlns="http://www.w3.org/2000/svg" width="389" height="166">
<path d="M0 0 C2.296875 0.19140625 2.296875 0.19140625 5 1 C6.703125 3.15234375 6.703125 3.15234375 8.25 5.9375 C11.86799379 11.99881427 16.17369257 16.8802009 21 22 C38.60517226 41.23993826 55.49976224 60.91393247 64 86 C64.23460937 86.68835938 64.46921875 87.37671875 64.7109375 88.0859375 C69.13203566 102.2462664 68.0394935 118.92397424 61.75 132.3125 C59.01953787 137.29927215 55.70460546 141.69943627 52 146 C51.23429687 146.90878906 51.23429687 146.90878906 50.453125 147.8359375 C41.32641614 157.82109918 26.88972412 165.42507668 13.24853516 166.14526367 C10.04058448 166.16987507 6.83305207 166.18565204 3.625 166.1875 C2.51382813 166.19974609 1.40265625 166.21199219 0.2578125 166.22460938 C-5.5868722 166.23504631 -10.49149945 165.97351791 -16 164 C-16.74765625 163.78859375 -17.4953125 163.5771875 -18.265625 163.359375 C-30.04515209 159.74203991 -42.78544419 152.9553741 -49 142 C-49.78375 141.175 -50.5675 140.35 -51.375 139.5 C-55.39605637 134.82294047 -57.02518813 128.74359203 -59 123 C-59.4125 121.824375 -59.825 120.64875 -60.25 119.4375 C-65.09723337 97.22101372 -57.77603103 76.62551051 -46 58 C-41.02099149 50.43782271 -35.22608435 43.59200104 -29.3203125 36.75 C-26.9451256 34.03968518 -26.9451256 34.03968518 -25 31 C-24.34 31 -23.68 31 -23 31 C-22.67 29.68 -22.34 28.36 -22 27 C-21.34 27 -20.68 27 -20 27 C-20 26.34 -20 25.68 -20 25 C-18.34303659 23.65462725 -16.67444998 22.32354555 -15 21 C-9.08961285 14.56538721 -4.22316204 7.63481451 0 0 Z M2 35 C-3.88967907 41.33024562 -9.70616144 47.72068092 -15.375 54.25 C-15.86194336 54.80316895 -16.34888672 55.35633789 -16.85058594 55.92626953 C-20.47242377 60.13103185 -22.98090409 64.16944654 -26 69 C-6.86 69.33 12.28 69.66 32 70 C29.9579733 65.9159466 28.53871574 63.14319964 25.8125 59.75 C25.20277344 58.986875 24.59304688 58.22375 23.96484375 57.4375 C22.99224609 56.2309375 22.99224609 56.2309375 22 55 C21.32066406 54.13375 20.64132812 53.2675 19.94140625 52.375 C14.83948413 45.84718583 14.83948413 45.84718583 9 40 C8.34 40 7.68 40 7 40 C6.731875 39.360625 6.46375 38.72125 6.1875 38.0625 C5.11332248 35.66868314 5.11332248 35.66868314 2 35 Z M33 71 C32.99742187 72.29035156 32.99484375 73.58070312 32.9921875 74.91015625 C32.95464691 76.62763811 32.91549909 78.34508536 32.875 80.0625 C32.87886719 81.33383789 32.87886719 81.33383789 32.8828125 82.63085938 C32.67455628 89.37315448 30.6679634 92.32228668 26 97 C16.54820735 109.98388218 11.44331883 127.12349288 10 143 C21.73806298 141.10676404 30.48665985 135.17637197 38 126 C44.41508431 116.3304339 46.18999543 105.33852473 44 94 C43.36096883 92.32254318 42.69658363 90.65438613 42 89 C41.7525 87.96875 41.505 86.9375 41.25 85.875 C39.79866639 80.5098241 36.75142427 75.78470951 34 71 C33.67 71 33.34 71 33 71 Z M-29 73 C-36.19036799 86.49425226 -41.75590517 99.31955537 -38.34375 115.01953125 C-34.81832875 125.88451485 -27.35489861 133.76340093 -18 140 C-17.01 140 -16.02 140 -15 140 C-14.89977539 139.41621582 -14.79955078 138.83243164 -14.69628906 138.23095703 C-11.11205709 117.64803759 -11.11205709 117.64803759 -7 109 C-6.23986946 107.22703061 -5.48015276 105.45387033 -4.72802734 103.67749023 C-3.49940072 100.77894831 -2.24734957 97.89052473 -1 95 C0.00124875 92.66719955 1.00071467 90.33364259 2 88 C-0.64 88 -3.28 88 -6 88 C-6.33 90.31 -6.66 92.62 -7 95 C-18.98227183 96.40840446 -18.98227183 96.40840446 -25 95 C-27.43914492 92.56085508 -27.28662523 91.78553569 -27.4140625 88.4296875 C-27.45273437 87.53378906 -27.49140625 86.63789062 -27.53125 85.71484375 C-27.5621875 84.77769531 -27.593125 83.84054688 -27.625 82.875 C-27.66367187 81.93011719 -27.70234375 80.98523438 -27.7421875 80.01171875 C-27.83661346 77.67467625 -27.92218394 75.33764499 -28 73 C-28.33 73 -28.66 73 -29 73 Z " fill="#FAFAFA" transform="translate(321,0)"/>
<path d="M0 0 C5.30846841 4.20502273 7.81766538 9.04468539 9.5234375 15.52734375 C10.00523954 20.02189939 10.10110325 24.46417362 10.04492188 28.97705078 C10.02346241 31.02496686 10.04481905 33.06937713 10.0703125 35.1171875 C10.09380948 45.78998238 8.47164446 54.22003649 0.79296875 61.95703125 C-1.46170465 63.51706345 -3.61037056 64.53100544 -6.1184082 65.62548828 C-7.34065849 66.16110886 -7.34065849 66.16110886 -8.58760071 66.70755005 C-9.2109581 66.97808197 -9.83431549 67.24861389 -10.4765625 67.52734375 C-10.47212128 68.21194672 -10.46768005 68.89654968 -10.46310425 69.60189819 C-10.41896753 76.70658284 -10.3887364 83.81122875 -10.36669922 90.91601562 C-10.35662161 93.57000306 -10.34295937 96.22397935 -10.32568359 98.87792969 C-10.30151258 102.68557482 -10.29009715 106.49307359 -10.28125 110.30078125 C-10.27092743 111.49351654 -10.26060486 112.68625183 -10.24996948 113.91513062 C-10.24974289 115.56661606 -10.24974289 115.56661606 -10.24951172 117.25146484 C-10.2450705 118.22409271 -10.24062927 119.19672058 -10.23605347 120.19882202 C-10.4765625 122.52734375 -10.4765625 122.52734375 -12.4765625 124.52734375 C-15.515625 124.72265625 -15.515625 124.72265625 -19.1015625 124.65234375 C-20.29007813 124.63429687 -21.47859375 124.61625 -22.703125 124.59765625 C-23.61835938 124.57445312 -24.53359375 124.55125 -25.4765625 124.52734375 C-25.4765625 123.86734375 -25.4765625 123.20734375 -25.4765625 122.52734375 C-26.1365625 122.52734375 -26.7965625 122.52734375 -27.4765625 122.52734375 C-28.14811183 121.23820888 -28.81365109 119.94594171 -29.4765625 118.65234375 C-29.8478125 117.93304688 -30.2190625 117.21375 -30.6015625 116.47265625 C-31.4765625 114.52734375 -31.4765625 114.52734375 -31.4765625 112.52734375 C-32.1365625 112.52734375 -32.7965625 112.52734375 -33.4765625 112.52734375 C-33.98316406 111.47933594 -33.98316406 111.47933594 -34.5 110.41015625 C-34.94601563 109.50007813 -35.39203125 108.59 -35.8515625 107.65234375 C-36.29242188 106.74742187 -36.73328125 105.8425 -37.1875 104.91015625 C-38.38158949 102.43199903 -38.38158949 102.43199903 -40.4765625 100.52734375 C-40.50161865 101.21884521 -40.5266748 101.91034668 -40.55249023 102.62280273 C-40.66808411 105.73702241 -40.79097492 108.85091164 -40.9140625 111.96484375 C-40.95337891 113.05345703 -40.99269531 114.14207031 -41.03320312 115.26367188 C-41.07509766 116.29814453 -41.11699219 117.33261719 -41.16015625 118.3984375 C-41.19681396 119.3567749 -41.23347168 120.3151123 -41.27124023 121.30249023 C-41.4765625 123.52734375 -41.4765625 123.52734375 -42.4765625 124.52734375 C-44.42825811 124.73125225 -46.39019674 124.84119805 -48.3515625 124.90234375 C-49.42148438 124.95132813 -50.49140625 125.0003125 -51.59375 125.05078125 C-54.4765625 124.52734375 -54.4765625 124.52734375 -56.1340332 122.70214844 C-58.15849599 117.91471181 -57.88461624 113.35271027 -57.83984375 108.20703125 C-57.84034225 107.11141876 -57.84084076 106.01580627 -57.84135437 104.88699341 C-57.83901747 102.57552269 -57.82931168 100.26404925 -57.81274414 97.95263672 C-57.78910222 94.40829835 -57.79219252 90.86470994 -57.79882812 87.3203125 C-57.79325287 85.07421425 -57.78614395 82.82811918 -57.77734375 80.58203125 C-57.77825516 79.51951141 -57.77916656 78.45699158 -57.78010559 77.36227417 C-57.77057358 76.37760162 -57.76104156 75.39292908 -57.7512207 74.37841797 C-57.74661331 73.5119162 -57.74200592 72.64541443 -57.73725891 71.75265503 C-57.4765625 69.52734375 -57.4765625 69.52734375 -55.4765625 66.52734375 C-53.05078125 66.12890625 -53.05078125 66.12890625 -50.1640625 66.15234375 C-49.21917969 66.14460938 -48.27429688 66.136875 -47.30078125 66.12890625 C-43.94804666 66.60190615 -42.23602547 67.57613535 -39.4765625 69.52734375 C-37.80737305 71.7956543 -37.80737305 71.7956543 -36.36328125 74.4140625 C-35.83798828 75.35185547 -35.31269531 76.28964844 -34.77148438 77.25585938 C-34.24103516 78.23232422 -33.71058594 79.20878906 -33.1640625 80.21484375 C-32.61427734 81.20291016 -32.06449219 82.19097656 -31.49804688 83.20898438 C-30.14613651 85.64242304 -28.80624333 88.08170915 -27.4765625 90.52734375 C-27.45150635 89.83584229 -27.4264502 89.14434082 -27.40063477 88.43188477 C-27.28504089 85.31766509 -27.16215008 82.20377586 -27.0390625 79.08984375 C-26.99974609 78.00123047 -26.96042969 76.91261719 -26.91992188 75.79101562 C-26.87802734 74.75654297 -26.83613281 73.72207031 -26.79296875 72.65625 C-26.75631104 71.6979126 -26.71965332 70.7395752 -26.68188477 69.75219727 C-26.4765625 67.52734375 -26.4765625 67.52734375 -25.4765625 66.52734375 C-27.4565625 65.86734375 -29.4365625 65.20734375 -31.4765625 64.52734375 C-31.4765625 63.86734375 -31.4765625 63.20734375 -31.4765625 62.52734375 C-32.2396875 62.30046875 -33.0028125 62.07359375 -33.7890625 61.83984375 C-37.05741129 60.24367341 -37.8139881 58.69415214 -39.4765625 55.52734375 C-40.1365625 54.86734375 -40.7965625 54.20734375 -41.4765625 53.52734375 C-45.01661263 45.62769198 -44.92991726 37.46633551 -44.8515625 28.96484375 C-44.86316406 27.70220703 -44.87476563 26.43957031 -44.88671875 25.13867188 C-44.86168146 17.14760218 -44.51751811 9.96834328 -39.8984375 3.22265625 C-28.45305388 -7.52744706 -13.43943053 -7.99158566 0 0 Z M-22.4765625 16.52734375 C-24.58325077 20.7407203 -23.7059423 26.27310908 -23.7265625 30.90234375 C-23.7471875 32.0521875 -23.7678125 33.20203125 -23.7890625 34.38671875 C-23.79421875 35.49273437 -23.799375 36.59875 -23.8046875 37.73828125 C-23.8140332 38.75196777 -23.82337891 39.7656543 -23.83300781 40.81005859 C-23.42354831 43.93148616 -22.66782664 45.29617898 -20.4765625 47.52734375 C-17.9765625 48.11067708 -17.9765625 48.11067708 -15.4765625 47.52734375 C-12.9717514 45.64873542 -12.48955625 44.56632501 -11.4765625 41.52734375 C-11.16640315 37.36571201 -11.15283616 33.19915481 -11.1015625 29.02734375 C-11.04548828 27.29677734 -11.04548828 27.29677734 -10.98828125 25.53125 C-10.97667969 24.42652344 -10.96507812 23.32179688 -10.953125 22.18359375 C-10.93330566 21.17103516 -10.91348633 20.15847656 -10.89306641 19.11523438 C-11.2361184 16.29059886 -11.2361184 16.29059886 -13.94677734 14.67382812 C-17.90737062 12.87890957 -18.8590103 14.17593482 -22.4765625 16.52734375 Z " fill="#F7F7F7" transform="translate(244.4765625,37.47265625)"/>
<path d="M0 0 C4.06503487 -0.61520985 8.14648863 -0.51468019 12.25415039 -0.50097656 C14.26663785 -0.50002176 16.27899726 -0.54247711 18.29101562 -0.5859375 C27.62896137 -0.60441933 37.22982628 0.46924856 44.83789062 6.44311523 C50.53257821 12.74868374 50.37158405 20.41584584 50.25390625 28.42578125 C49.78488574 35.02814683 47.37786763 39.01828856 43 44 C43.39832031 44.61746094 43.79664063 45.23492187 44.20703125 45.87109375 C48.42247611 52.60965159 52.7989269 59.74442201 52 68 C48.85597519 69.5720124 45.51052603 69.18446744 42.0625 69.1875 C41.33353516 69.19974609 40.60457031 69.21199219 39.85351562 69.22460938 C36.0286609 69.23512685 34.25643436 69.17095624 31 67 C31 66.01 31 65.02 31 64 C30.01 63.505 30.01 63.505 29 63 C28.18359375 60.8203125 28.18359375 60.8203125 27.4375 58.125 C27.18871094 57.24070313 26.93992188 56.35640625 26.68359375 55.4453125 C26.45800781 54.63835937 26.23242188 53.83140625 26 53 C25.67 52.01 25.34 51.02 25 50 C23.02 49.34 21.04 48.68 19 48 C19 54.6 19 61.2 19 68 C22.1246875 68.4640625 22.1246875 68.4640625 25.3125 68.9375 C28.68835789 69.43886503 31.76127691 69.92042564 35 71 C35 75.29 35 79.58 35 84 C28.73 84.33 22.46 84.66 16 85 C15.67 86.98 15.34 88.96 15 91 C16.66289062 90.96519531 16.66289062 90.96519531 18.359375 90.9296875 C19.82290992 90.91092423 21.28645214 90.89272463 22.75 90.875 C23.47960937 90.85824219 24.20921875 90.84148437 24.9609375 90.82421875 C28.8044624 90.78927761 31.74606772 90.82500316 35 93 C35.02687279 94.81242052 35.04633715 96.62495233 35.0625 98.4375 C35.07410156 99.44683594 35.08570313 100.45617187 35.09765625 101.49609375 C35 104 35 104 34 105 C32.58429877 105.08651611 31.164405 105.10704904 29.74609375 105.09765625 C28.89208984 105.09443359 28.03808594 105.09121094 27.15820312 105.08789062 C26.26037109 105.07951172 25.36253906 105.07113281 24.4375 105.0625 C23.53580078 105.05798828 22.63410156 105.05347656 21.70507812 105.04882812 C19.46998686 105.03700225 17.23502563 105.0205222 15 105 C15 107.64 15 110.28 15 113 C16.66289062 112.96519531 16.66289062 112.96519531 18.359375 112.9296875 C19.82290992 112.91092423 21.28645214 112.89272463 22.75 112.875 C23.47960937 112.85824219 24.20921875 112.84148437 24.9609375 112.82421875 C28.8044624 112.78927761 31.74606772 112.82500316 35 115 C35.02686553 116.97909398 35.04633375 118.95828971 35.0625 120.9375 C35.07410156 122.03964844 35.08570313 123.14179688 35.09765625 124.27734375 C35 127 35 127 34 128 C30.13330963 128.3103111 26.25259633 128.27856538 22.375 128.3125 C21.29347656 128.34150391 20.21195313 128.37050781 19.09765625 128.40039062 C12.50418254 128.45271978 8.27678477 128.09380993 3 124 C1.4765625 122 1.4765625 122 0.625 120 C0.32851562 119.34 0.03203125 118.68 -0.2734375 118 C-2.50231766 111.86458794 -2.22177385 105.79380275 -2.24023438 99.3203125 C-2.2499037 97.27041473 -2.2809364 95.2215363 -2.3125 93.171875 C-2.34027795 86.11627607 -2.317863 80.31240757 1 74 C2.9282937 72.28280176 4.69702234 71.22825475 7 70 C5.329375 69.62875 5.329375 69.62875 3.625 69.25 C0 68 0 68 -1.21038818 66.29725647 C-2.19731495 63.42594193 -2.25425289 61.03208725 -2.25878906 57.99389648 C-2.26509338 56.78261581 -2.27139771 55.57133514 -2.27789307 54.323349 C-2.2738446 53.01910477 -2.26979614 51.71486053 -2.265625 50.37109375 C-2.26697277 49.0163618 -2.26891425 47.66163032 -2.27142334 46.30690002 C-2.27436832 43.47156151 -2.27009651 40.63634921 -2.26074219 37.80102539 C-2.24933698 34.1670425 -2.25591763 30.53335471 -2.26788712 26.89938259 C-2.27511338 24.10355911 -2.27281447 21.30780564 -2.26763153 18.51198006 C-2.26564935 16.52055291 -2.27172115 14.52912304 -2.27789307 12.53770447 C-2.27158875 11.32957596 -2.26528442 10.12144745 -2.25878906 8.87670898 C-2.25719788 7.81177719 -2.25560669 6.7468454 -2.25396729 5.64964294 C-2 3 -2 3 0 0 Z M19 18 C19 21.96 19 25.92 19 30 C20.27875 30.020625 21.5575 30.04125 22.875 30.0625 C23.59429687 30.07410156 24.31359375 30.08570313 25.0546875 30.09765625 C27.08185404 30.12649242 27.08185404 30.12649242 29 29 C29.02688151 27.35425434 29.04634123 25.70838587 29.0625 24.0625 C29.07410156 23.14597656 29.08570313 22.22945312 29.09765625 21.28515625 C29.25949049 19.03406673 29.25949049 19.03406673 28 18 C24.99668982 17.85806663 22.00782866 17.95763622 19 18 Z " fill="#F9F9F9" transform="translate(148,34)"/>
<path d="M0 0 C1.97033203 0.00870117 1.97033203 0.00870117 3.98046875 0.01757812 C13.6577846 0.1413923 13.6577846 0.1413923 18.25 2.4375 C18.25 7.3875 18.25 12.3375 18.25 17.4375 C15.84940183 18.63779908 14.35639351 18.55209743 11.6796875 18.53515625 C10.78378906 18.53193359 9.88789062 18.52871094 8.96484375 18.52539062 C8.02769531 18.51701172 7.09054688 18.50863281 6.125 18.5 C5.18011719 18.49548828 4.23523438 18.49097656 3.26171875 18.48632812 C0.92441613 18.47452357 -1.41276061 18.45805759 -3.75 18.4375 C-3.75 21.0775 -3.75 23.7175 -3.75 26.4375 C-2.48542969 26.41429688 -1.22085938 26.39109375 0.08203125 26.3671875 C1.7421816 26.34842874 3.40233833 26.33022865 5.0625 26.3125 C6.31256836 26.28736328 6.31256836 26.28736328 7.58789062 26.26171875 C8.39033203 26.25527344 9.19277344 26.24882813 10.01953125 26.2421875 C10.75792236 26.23171387 11.49631348 26.22124023 12.25708008 26.21044922 C14.25 26.4375 14.25 26.4375 17.25 28.4375 C17.47296203 31.08331609 17.53148752 33.43029502 17.4375 36.0625 C17.375625 38.49625 17.31375 40.93 17.25 43.4375 C10.32 43.4375 3.39 43.4375 -3.75 43.4375 C-3.75 46.0775 -3.75 48.7175 -3.75 51.4375 C-2.49703125 51.41429687 -1.2440625 51.39109375 0.046875 51.3671875 C1.6979107 51.34842573 3.34895285 51.33022597 5 51.3125 C5.825 51.29574219 6.65 51.27898437 7.5 51.26171875 C8.29921875 51.25527344 9.0984375 51.24882813 9.921875 51.2421875 C10.6550293 51.23171387 11.38818359 51.22124023 12.14355469 51.21044922 C14.54896076 51.46972456 16.16251494 52.24524075 18.25 53.4375 C18.27692484 55.72910319 18.29636124 58.02079546 18.3125 60.3125 C18.32410156 61.58867188 18.33570313 62.86484375 18.34765625 64.1796875 C18.25 67.4375 18.25 67.4375 17.25 69.4375 C16.26 69.7675 15.27 70.0975 14.25 70.4375 C15.24 71.0975 16.23 71.7575 17.25 72.4375 C17.578125 75.00390625 17.578125 75.00390625 17.5 78 C17.48453125 78.99128906 17.4690625 79.98257813 17.453125 81.00390625 C17.25 83.4375 17.25 83.4375 16.25 84.4375 C14.83672053 84.59370555 13.4164541 84.68806173 11.99609375 84.75390625 C11.14208984 84.79580078 10.28808594 84.83769531 9.40820312 84.88085938 C8.51037109 84.92017578 7.61253906 84.95949219 6.6875 85 C5.78580078 85.04318359 4.88410156 85.08636719 3.95507812 85.13085938 C1.72021515 85.23728142 -0.51476308 85.33929988 -2.75 85.4375 C-3.08 87.4175 -3.41 89.3975 -3.75 91.4375 C-2.08710937 91.40269531 -2.08710937 91.40269531 -0.390625 91.3671875 C1.07290992 91.34842423 2.53645214 91.33022463 4 91.3125 C4.72960937 91.29574219 5.45921875 91.27898437 6.2109375 91.26171875 C10.38521398 91.22377078 12.41970546 91.52235273 16.25 93.4375 C16.25 97.3975 16.25 101.3575 16.25 105.4375 C9.65 105.4375 3.05 105.4375 -3.75 105.4375 C-3.75 108.0775 -3.75 110.7175 -3.75 113.4375 C-2.65300781 113.41429687 -1.55601563 113.39109375 -0.42578125 113.3671875 C1.028639 113.34842079 2.48306664 113.33022156 3.9375 113.3125 C4.65873047 113.29574219 5.37996094 113.27898437 6.12304688 113.26171875 C10.59808355 113.22085084 12.95740683 113.72046273 17.25 115.4375 C17.25 119.3975 17.25 123.3575 17.25 127.4375 C13.43906326 129.34296837 8.88651893 129.00717175 4.6875 129.25 C3.72263672 129.32669922 2.75777344 129.40339844 1.76367188 129.48242188 C-4.82069383 129.85143089 -10.16675842 129.17874377 -15.75 125.4375 C-19.43702452 119.79174371 -19.91814472 114.59280941 -19.953125 108.0078125 C-19.95882507 107.180466 -19.96452515 106.35311951 -19.97039795 105.5007019 C-19.97984023 103.75064368 -19.98637887 102.00056773 -19.99023438 100.25048828 C-19.99993847 97.57943569 -20.03096785 94.90915325 -20.0625 92.23828125 C-20.06903058 90.53646289 -20.07428084 88.83463904 -20.078125 87.1328125 C-20.0904718 86.33682648 -20.1028186 85.54084045 -20.11553955 84.72073364 C-20.09719466 80.13173955 -19.7175697 77.16587225 -16.75 73.4375 C-14.0625 71.625 -14.0625 71.625 -11.75 70.4375 C-12.6575 70.045625 -13.565 69.65375 -14.5 69.25 C-19.0325797 66.72221516 -21.84969202 63.26135873 -23.75 58.4375 C-24.79329481 53.46193133 -24.91090706 48.65919953 -24.91796875 43.6015625 C-24.92296135 42.34428848 -24.92296135 42.34428848 -24.92805481 41.06161499 C-24.93309867 39.29498846 -24.93546392 37.52835247 -24.93530273 35.76171875 C-24.93748741 33.07796322 -24.95566515 30.39462037 -24.97460938 27.7109375 C-24.97754431 25.98698056 -24.97952843 24.26302168 -24.98046875 22.5390625 C-24.98765427 21.74609772 -24.99483978 20.95313293 -25.00224304 20.13613892 C-24.97939414 14.48569219 -24.8936244 8.23147452 -21.32324219 3.57788086 C-14.59928141 -0.6352221 -7.7261317 -0.19564683 0 0 Z " fill="#FAFAFA" transform="translate(76.75,33.5625)"/>
<path d="M0 0 C2.71922835 2.70911969 4.42106121 5.51929108 6 9 C6.34401855 9.72106934 6.68803711 10.44213867 7.04248047 11.18505859 C8.86609757 16.54617668 8.41149693 22.31276316 8.42553711 27.92700195 C8.43737594 30.16405689 8.48654401 32.39829669 8.53710938 34.63476562 C8.63300632 42.98117482 8.13149997 50.04189449 3 57 C-2.11943202 62.13752189 -8.82736311 64.91429757 -16.04296875 65.0625 C-23.41231243 64.79113176 -28.23807954 63.5712148 -34 59 C-34.928125 58.443125 -35.85625 57.88625 -36.8125 57.3125 C-43.38531633 50.36409416 -42.45715934 39.35178872 -42.375 30.4375 C-42.38660156 29.17486328 -42.39820313 27.91222656 -42.41015625 26.61132812 C-42.38511896 18.62025843 -42.04095561 11.44099953 -37.421875 4.6953125 C-26.65545829 -5.41706955 -13.20285507 -6.38081427 0 0 Z M-20 18 C-22.10668827 22.21337655 -21.2293798 27.74576533 -21.25 32.375 C-21.270625 33.52484375 -21.29125 34.6746875 -21.3125 35.859375 C-21.31765625 36.96539062 -21.3228125 38.07140625 -21.328125 39.2109375 C-21.3374707 40.22462402 -21.34681641 41.23831055 -21.35644531 42.28271484 C-20.94698581 45.40414241 -20.19126414 46.76883523 -18 49 C-15.5 49.58333333 -15.5 49.58333333 -13 49 C-10.4951889 47.12139167 -10.01299375 46.03898126 -9 43 C-8.68984065 38.83836826 -8.67627366 34.67181106 -8.625 30.5 C-8.56892578 28.76943359 -8.56892578 28.76943359 -8.51171875 27.00390625 C-8.50011719 25.89917969 -8.48851562 24.79445313 -8.4765625 23.65625 C-8.45674316 22.64369141 -8.43692383 21.63113281 -8.41650391 20.58789062 C-8.7595559 17.76325511 -8.7595559 17.76325511 -11.47021484 16.14648438 C-15.43080812 14.35156582 -16.3824478 15.64859107 -20 18 Z " fill="#FBFBFB" transform="translate(242,36)"/>
<path d="M0 0 C1.98181272 -0.00957513 3.96348387 -0.04070231 5.94506836 -0.07226562 C15.81586161 -0.11228912 25.29225064 0.56181472 33.08374023 7.24023438 C38.53522938 14.90036542 38.62028834 22.11891665 38.08374023 31.24023438 C37.08472934 37.07849071 34.49024175 40.46350679 29.84545898 44.05664062 C22.77302427 48.80818767 15.4397818 48.24023438 7.08374023 48.24023438 C7.08374023 54.84023437 7.08374023 61.44023438 7.08374023 68.24023438 C4.04944346 69.75738276 0.90772357 69.38387353 -2.41625977 69.36523438 C-3.1059082 69.36910156 -3.79555664 69.37296875 -4.50610352 69.37695312 C-9.66292684 69.36690084 -9.66292684 69.36690084 -11.91625977 68.24023438 C-13.01471378 64.94487233 -13.0432054 62.51036769 -13.0456543 59.04052734 C-13.04880646 57.7626535 -13.05195862 56.48477966 -13.0552063 55.16818237 C-13.05341679 53.77292852 -13.0513659 52.37767499 -13.04907227 50.98242188 C-13.04974576 49.55420922 -13.05071617 48.12599668 -13.05197144 46.69778442 C-13.05344531 43.70687772 -13.05130315 40.71600089 -13.04663086 37.72509766 C-13.04092342 33.88358124 -13.04422093 30.04213453 -13.05020332 26.20062065 C-13.05380849 23.25305654 -13.05267074 20.30550909 -13.05007553 17.35794449 C-13.04940667 15.94089881 -13.05023326 14.52385164 -13.05255508 13.10680771 C-13.05508196 11.13158953 -13.05055076 9.15636607 -13.0456543 7.18115234 C-13.0448587 6.05546844 -13.04406311 4.92978455 -13.04324341 3.76998901 C-12.73986223 -2.27393855 -4.68008128 0.01365616 0 0 Z M7.08374023 18.24023438 C7.08374023 22.20023438 7.08374023 26.16023438 7.08374023 30.24023438 C8.36249023 30.26085937 9.64124023 30.28148437 10.95874023 30.30273438 C11.67803711 30.31433594 12.39733398 30.3259375 13.13842773 30.33789062 C15.16559428 30.36672679 15.16559428 30.36672679 17.08374023 29.24023438 C17.11062174 27.59448872 17.13008147 25.94862024 17.14624023 24.30273438 C17.1578418 23.38621094 17.16944336 22.4696875 17.18139648 21.52539062 C17.34323072 19.2743011 17.34323072 19.2743011 16.08374023 18.24023438 C13.08043006 18.098301 10.09156889 18.19787059 7.08374023 18.24023438 Z " fill="#FCFCFC" transform="translate(12.916259765625,33.759765625)"/>
<path d="M0 0 C1.32 0.33 2.64 0.66 4 1 C4.02692484 3.29160319 4.04636124 5.58329546 4.0625 7.875 C4.07410156 9.15117188 4.08570313 10.42734375 4.09765625 11.7421875 C4 15 4 15 3 17 C2.01 17.33 1.02 17.66 0 18 C0.99 18.66 1.98 19.32 3 20 C3.328125 22.56640625 3.328125 22.56640625 3.25 25.5625 C3.23453125 26.55378906 3.2190625 27.54507813 3.203125 28.56640625 C3 31 3 31 2 32 C0.58672053 32.15620555 -0.8335459 32.25056173 -2.25390625 32.31640625 C-3.10791016 32.35830078 -3.96191406 32.40019531 -4.84179688 32.44335938 C-5.73962891 32.48267578 -6.63746094 32.52199219 -7.5625 32.5625 C-8.46419922 32.60568359 -9.36589844 32.64886719 -10.29492188 32.69335938 C-12.52978485 32.79978142 -14.76476308 32.90179988 -17 33 C-17.33 34.98 -17.66 36.96 -18 39 C-16.89140625 38.97679687 -15.7828125 38.95359375 -14.640625 38.9296875 C-13.17709008 38.91092423 -11.71354786 38.89272463 -10.25 38.875 C-9.52039063 38.85824219 -8.79078125 38.84148437 -8.0390625 38.82421875 C-3.86478602 38.78627078 -1.83029454 39.08485273 2 41 C2 44.96 2 48.92 2 53 C-4.6 53 -11.2 53 -18 53 C-18 55.64 -18 58.28 -18 61 C-16.90300781 60.97679687 -15.80601563 60.95359375 -14.67578125 60.9296875 C-13.221361 60.91092079 -11.76693336 60.89272156 -10.3125 60.875 C-9.59126953 60.85824219 -8.87003906 60.84148437 -8.12695312 60.82421875 C-3.65191645 60.78335084 -1.29259317 61.28296273 3 63 C3 66.96 3 70.92 3 75 C-0.81093674 76.90546837 -5.36348107 76.56967175 -9.5625 76.8125 C-10.52736328 76.88919922 -11.49222656 76.96589844 -12.48632812 77.04492188 C-19.07069383 77.41393089 -24.41675842 76.74124377 -30 73 C-33.68702452 67.35424371 -34.16814472 62.15530941 -34.203125 55.5703125 C-34.20882507 54.742966 -34.21452515 53.91561951 -34.22039795 53.0632019 C-34.22984023 51.31314368 -34.23637887 49.56306773 -34.24023438 47.81298828 C-34.24993847 45.14193569 -34.28096785 42.47165325 -34.3125 39.80078125 C-34.31903058 38.09896289 -34.32428084 36.39713904 -34.328125 34.6953125 C-34.3404718 33.89932648 -34.3528186 33.10334045 -34.36553955 32.28323364 C-34.34719466 27.69423955 -33.9675697 24.72837225 -31 21 C-28.3125 19.1875 -28.3125 19.1875 -26 18 C-26.9075 17.608125 -27.815 17.21625 -28.75 16.8125 C-32.14118394 14.9212628 -33.79032837 13.1445327 -36 10 C-35.34 9.67 -34.68 9.34 -34 9 C-33.67 9.66 -33.34 10.32 -33 11 C-29.13319502 12.98949058 -25.91406175 13.23615224 -21.60546875 13.1953125 C-20.40341797 13.18886719 -19.20136719 13.18242188 -17.96289062 13.17578125 C-16.71701172 13.15902344 -15.47113281 13.14226562 -14.1875 13.125 C-12.92228516 13.11597656 -11.65707031 13.10695313 -10.35351562 13.09765625 C-7.23559595 13.07412478 -4.11777378 13.03825489 -1 13 C-0.505 6.565 -0.505 6.565 0 0 Z " fill="#FBFBFB" transform="translate(91,86)"/>
<path d="M0 0 C5 0 5 0 7.3125 1.875 C9 4 9 4 9 6 C7.02 5.34 5.04 4.68 3 4 C3 10.6 3 17.2 3 24 C5.083125 24.309375 7.16625 24.61875 9.3125 24.9375 C12.68835789 25.43886503 15.76127691 25.92042564 19 27 C19 31.29 19 35.58 19 40 C12.73 40.33 6.46 40.66 0 41 C-0.33 42.98 -0.66 44.96 -1 47 C0.10859375 46.97679687 1.2171875 46.95359375 2.359375 46.9296875 C3.82290992 46.91092423 5.28645214 46.89272463 6.75 46.875 C7.47960937 46.85824219 8.20921875 46.84148437 8.9609375 46.82421875 C12.8044624 46.78927761 15.74606772 46.82500316 19 49 C19.02687279 50.81242052 19.04633715 52.62495233 19.0625 54.4375 C19.07410156 55.44683594 19.08570313 56.45617187 19.09765625 57.49609375 C19 60 19 60 18 61 C16.58429877 61.08651611 15.164405 61.10704904 13.74609375 61.09765625 C12.89208984 61.09443359 12.03808594 61.09121094 11.15820312 61.08789062 C10.26037109 61.07951172 9.36253906 61.07113281 8.4375 61.0625 C7.53580078 61.05798828 6.63410156 61.05347656 5.70507812 61.04882812 C3.46998686 61.03700225 1.23502563 61.0205222 -1 61 C-1 63.64 -1 66.28 -1 69 C0.66289062 68.96519531 0.66289062 68.96519531 2.359375 68.9296875 C3.82290992 68.91092423 5.28645214 68.89272463 6.75 68.875 C7.47960937 68.85824219 8.20921875 68.84148437 8.9609375 68.82421875 C12.8044624 68.78927761 15.74606772 68.82500316 19 71 C19.02686553 72.97909398 19.04633375 74.95828971 19.0625 76.9375 C19.07410156 78.03964844 19.08570313 79.14179688 19.09765625 80.27734375 C19 83 19 83 18 84 C14.13330963 84.3103111 10.25259633 84.27856538 6.375 84.3125 C5.29347656 84.34150391 4.21195313 84.37050781 3.09765625 84.40039062 C-3.49581746 84.45271978 -7.72321523 84.09380993 -13 80 C-14.5234375 78 -14.5234375 78 -15.375 76 C-15.67148438 75.34 -15.96796875 74.68 -16.2734375 74 C-18.50231766 67.86458794 -18.22177385 61.79380275 -18.24023438 55.3203125 C-18.2499037 53.27041473 -18.2809364 51.2215363 -18.3125 49.171875 C-18.34027795 42.11627607 -18.317863 36.31240757 -15 30 C-13.0717063 28.28280176 -11.30297766 27.22825475 -9 26 C-11.31 25.34 -13.62 24.68 -16 24 C-16 23.01 -16 22.02 -16 21 C-11.05 20.67 -6.1 20.34 -1 20 C-0.67 13.4 -0.34 6.8 0 0 Z " fill="#FCFCFC" transform="translate(164,78)"/>
<path d="M0 0 C1.27174576 -0.00956978 1.27174576 -0.00956978 2.56918335 -0.01933289 C3.48688507 -0.02044571 4.40458679 -0.02155853 5.35009766 -0.02270508 C6.76326767 -0.02769768 6.76326767 -0.02769768 8.20498657 -0.03279114 C10.20061758 -0.03785975 12.19625709 -0.04019948 14.19189453 -0.04003906 C17.2447713 -0.04222246 20.29728501 -0.06037036 23.35009766 -0.0793457 C25.28759642 -0.08228025 27.2250969 -0.08426463 29.16259766 -0.08520508 C30.53307755 -0.09598335 30.53307755 -0.09598335 31.9312439 -0.10697937 C32.78537872 -0.10390274 33.63951355 -0.10082611 34.51953125 -0.09765625 C35.26850677 -0.09908127 36.0174823 -0.10050629 36.78915405 -0.10197449 C39.1799423 0.17949807 40.81051684 0.95985255 42.88916016 2.14526367 C42.91601111 4.62450168 42.93592563 7.10345207 42.95166016 9.58276367 C42.96003906 10.28981445 42.96841797 10.99686523 42.97705078 11.7253418 C42.98569603 13.53219927 42.94136027 15.3391397 42.88916016 17.14526367 C42.39416016 17.64026367 42.39416016 17.64026367 41.88916016 18.14526367 C37.59916016 18.14526367 33.30916016 18.14526367 28.88916016 18.14526367 C28.88916016 34.64526367 28.88916016 51.14526367 28.88916016 68.14526367 C25.87057249 69.6545575 22.76015062 69.3703644 19.45166016 69.39526367 C18.77039063 69.41588867 18.08912109 69.43651367 17.38720703 69.45776367 C12.37711926 69.49701999 12.37711926 69.49701999 10.19145203 67.9214325 C8.49636523 65.60953884 8.5261288 64.25024573 8.54858398 61.3984375 C8.54881058 60.437668 8.54903717 59.4768985 8.54927063 58.48701477 C8.56475449 57.45255722 8.58023834 56.41809967 8.59619141 55.35229492 C8.60043625 54.29112961 8.60468109 53.22996429 8.60905457 52.13664246 C8.6258631 48.74342602 8.66351997 45.35080095 8.70166016 41.95776367 C8.71670415 39.65894412 8.73039305 37.36011526 8.74267578 35.0612793 C8.77577371 29.42240525 8.82599486 23.78387671 8.88916016 18.14526367 C8.04611328 18.18006836 7.20306641 18.21487305 6.33447266 18.25073242 C5.23876953 18.27780273 4.14306641 18.30487305 3.01416016 18.33276367 C1.37833984 18.3849707 1.37833984 18.3849707 -0.29052734 18.43823242 C-1.22123047 18.34155273 -2.15193359 18.24487305 -3.11083984 18.14526367 C-5.53563721 14.50806763 -5.49746561 12.28822885 -5.73583984 7.95776367 C-5.81060547 6.68545898 -5.88537109 5.4131543 -5.96240234 4.10229492 C-6.01138672 3.12647461 -6.06037109 2.1506543 -6.11083984 1.14526367 C-3.82639095 0.00303922 -2.53856504 0.01294715 0 0 Z " fill="#FDFDFD" transform="translate(102.11083984375,33.854736328125)"/>
<path d="M0 0 C2.27076842 -0.02699725 4.54162821 -0.04639453 6.8125 -0.0625 C8.07707031 -0.07410156 9.34164062 -0.08570312 10.64453125 -0.09765625 C14 0 14 0 17 1 C17.84382451 3.61119895 18.48195693 6.07937268 19.04296875 8.75390625 C19.21629227 9.52935287 19.38961578 10.3047995 19.56819153 11.10374451 C20.12034967 13.58744836 20.65407723 16.0747121 21.1875 18.5625 C21.55804021 20.24440646 21.92976987 21.92605135 22.30273438 23.60742188 C23.21566565 27.73536972 24.11208491 31.86660218 25 36 C25.19843506 34.92041016 25.39687012 33.84082031 25.60131836 32.72851562 C25.86823661 31.2877437 26.13525015 29.84698943 26.40234375 28.40625 C26.53233765 27.69758789 26.66233154 26.98892578 26.79626465 26.25878906 C27.94089819 20.10218208 29.40557575 14.05522918 31 8 C31.39814603 6.41724664 31.79427351 4.83398276 32.1875 3.25 C32.455625 2.1775 32.72375 1.105 33 0 C35.27076842 -0.02699725 37.54162821 -0.04639453 39.8125 -0.0625 C41.07707031 -0.07410156 42.34164062 -0.08570312 43.64453125 -0.09765625 C47 0 47 0 50 1 C49.40339527 7.38887584 48.34374514 13.4436333 46.8203125 19.671875 C46.60688202 20.55731995 46.39345154 21.44276489 46.17355347 22.3550415 C45.72419081 24.2111839 45.27193308 26.06662762 44.81689453 27.92138672 C44.12407415 30.75378506 43.44637021 33.58952703 42.76953125 36.42578125 C42.32903524 38.23720076 41.88765946 40.0484066 41.4453125 41.859375 C41.24519562 42.70216003 41.04507874 43.54494507 40.83889771 44.41326904 C39.40676232 50.17391763 38.148659 54.56756067 33 58 C29.6015625 58.3359375 29.6015625 58.3359375 25.625 58.375 C24.31789063 58.40335938 23.01078125 58.43171875 21.6640625 58.4609375 C17.45160402 57.93101202 15.92332264 57.0181331 13 54 C9.14228687 48.21895711 8.56837457 42.79810051 9 36 C8.34 35.67 7.68 35.34 7 35 C6.4375 32.671875 6.4375 32.671875 6 29.75 C5.41166846 25.86280949 4.46880002 22.6348514 3 19 C2.59910371 17.17631491 2.24530948 15.3416836 1.9375 13.5 C1.47358244 10.77017104 1.01128287 8.05365283 0.44140625 5.34375 C0 3 0 3 0 0 Z " fill="#F9F9F9" transform="translate(96,104)"/>
<path d="M0 0 C0.328125 2.3125 0.328125 2.3125 0.25 5 C0.23453125 5.886875 0.2190625 6.77375 0.203125 7.6875 C0 10 0 10 -1 12 C-7.6 12 -14.2 12 -21 12 C-21.33 12.66 -21.66 13.32 -22 14 C-21.51120361 14.27150879 -21.02240723 14.54301758 -20.51879883 14.82275391 C-18.27617052 16.07777598 -16.04448135 17.35114638 -13.8125 18.625 C-13.04357422 19.05167969 -12.27464844 19.47835937 -11.48242188 19.91796875 C-6.01665075 23.06137361 -1.88799078 26.22401844 1 32 C1.49813129 37.45494588 1.71117027 42.37023481 -0.5 47.4375 C-5.10201505 52.15456543 -9.46166375 55.24514721 -16.19921875 55.55859375 C-18.0290342 55.5441651 -19.85881506 55.5034102 -21.6875 55.4375 C-22.61111328 55.43169922 -23.53472656 55.42589844 -24.48632812 55.41992188 C-33.01990859 55.26632971 -33.01990859 55.26632971 -37 53 C-40.00904966 48.34965053 -38.75310749 46.02485992 -38 40 C-27.605 39.505 -27.605 39.505 -17 39 C-17.5596312 34.8027663 -17.5596312 34.8027663 -20.94921875 33.140625 C-22.19146411 32.50286436 -23.43780014 31.87302683 -24.6875 31.25 C-31.41716347 27.68089159 -35.55328415 23.8934317 -39 17 C-39.99491467 12.55604782 -40.97546969 8.06591871 -38.97265625 3.82421875 C-30.30609719 -6.91128014 -11.10513807 -7.40342538 0 0 Z " fill="#F7F7F7" transform="translate(54,107)"/>
<path d="M0 0 C0.99 0 1.98 0 3 0 C4.5078125 2.0546875 4.5078125 2.0546875 6.125 4.875 C9.81108696 10.92297041 14.15669198 15.8621665 19 21 C36.60517226 40.23993826 53.49976224 59.91393247 62 85 C62.23460937 85.68835938 62.46921875 86.37671875 62.7109375 87.0859375 C67.13203566 101.2462664 66.0394935 117.92397424 59.75 131.3125 C57.01953787 136.29927215 53.70460546 140.69943627 50 145 C49.23429687 145.90878906 49.23429687 145.90878906 48.453125 146.8359375 C39.32641614 156.82109918 24.88972412 164.42507668 11.24853516 165.14526367 C8.04058448 165.16987507 4.83305207 165.18565204 1.625 165.1875 C0.51382812 165.19974609 -0.59734375 165.21199219 -1.7421875 165.22460938 C-7.55769476 165.23499421 -12.51908282 164.99808652 -18 163 C-18 162.01 -18 161.02 -18 160 C-17.04480469 160.15984375 -16.08960938 160.3196875 -15.10546875 160.484375 C2.97917542 163.04647983 21.71493053 160.96763728 36.69140625 149.73095703 C48.48807478 140.07818659 58.23873052 127.6312666 60 112 C61.11836999 87.36985165 53.02445454 67.50174199 38 48 C37.45859375 47.27683594 36.9171875 46.55367187 36.359375 45.80859375 C29.38471864 36.61626753 21.78375933 27.87978111 13.82348633 19.53271484 C0 5.02371712 0 5.02371712 0 0 Z " fill="#090909" transform="translate(323,1)"/>
<path d="M0 0 C3.78487299 1.54520044 6.02199536 3.87062887 8.75 6.875 C9.54921875 7.73867188 10.3484375 8.60234375 11.171875 9.4921875 C13 12 13 12 13 16 C12.443125 15.278125 11.88625 14.55625 11.3125 13.8125 C9.02090666 11.02542701 6.58540143 8.51358472 4 6 C0.72320785 7.09226405 0.07691498 7.79929154 -2.0625 10.375 C-4.89874178 13.72963051 -7.81873985 16.97250286 -10.8125 20.1875 C-25.50513714 36.41851645 -39.16716686 55.73411803 -38.37890625 78.64453125 C-37.29374429 88.25436756 -33.12507108 94.75853666 -27 102 C-26.34 102.99 -25.68 103.98 -25 105 C-32.48541177 101.9503878 -37.31189379 94.43650193 -40.75 87.4375 C-44.47730766 77.18740394 -44.2235035 65.99053639 -40 56 C-39.64808594 55.06542969 -39.29617188 54.13085938 -38.93359375 53.16796875 C-30.92697993 32.58330813 -14.57312671 16.20188794 0 0 Z " fill="#0C0C0C" transform="translate(321,30)"/>
<path d="M0 0 C5.78735162 2.23602222 7.40352624 4.61472108 10 10 C12.33347692 17.00043076 12.19155447 26.52185126 9.11328125 33.3203125 C5.29640029 39.07911536 -0.09302376 42.09140087 -6.6875 43.625 C-11.09858409 44.12436801 -15.56073979 44 -20 44 C-20 50.6 -20 57.2 -20 64 C-23.03429677 65.51714839 -26.17601667 65.14363916 -29.5 65.125 C-30.18964844 65.12886719 -30.87929688 65.13273437 -31.58984375 65.13671875 C-36.74666707 65.12666646 -36.74666707 65.12666646 -39 64 C-39 63.01 -39 62.02 -39 61 C-34.05 61 -29.1 61 -24 61 C-24 54.07 -24 47.14 -24 40 C-21.73125 39.938125 -19.4625 39.87625 -17.125 39.8125 C-8.89412886 39.38446968 -2.27406563 37.43377614 3.5625 31.3125 C6.19636867 27.07540692 6.21708099 23.64670294 6.25 18.75 C6.270625 17.99847656 6.29125 17.24695313 6.3125 16.47265625 C6.34667397 11.57723555 5.7391825 8.22397301 3 4 C2.01 3.34 1.02 2.68 0 2 C0 1.34 0 0.68 0 0 Z " fill="#101010" transform="translate(40,38)"/>
<path d="M0 0 C0.99 0.33 1.98 0.66 3 1 C3.02685095 3.47923801 3.04676547 5.9581884 3.0625 8.4375 C3.07087891 9.14455078 3.07925781 9.85160156 3.08789062 10.58007812 C3.09653588 12.38693559 3.05220011 14.19387603 3 16 C2.505 16.495 2.505 16.495 2 17 C-2.29 17 -6.58 17 -11 17 C-11 33.5 -11 50 -11 67 C-14.03429677 68.51714839 -17.17601667 68.14363916 -20.5 68.125 C-21.18964844 68.12886719 -21.87929687 68.13273437 -22.58984375 68.13671875 C-27.74666707 68.12666646 -27.74666707 68.12666646 -30 67 C-30 66.01 -30 65.02 -30 64 C-25.05 64 -20.1 64 -15 64 C-15 47.17 -15 30.34 -15 13 C-10.38 13 -5.76 13 -1 13 C-1.0309375 10.0609375 -1.0309375 10.0609375 -1.0625 7.0625 C-1.08377188 5.04167124 -1.07244053 3.01964199 -1 1 C-0.67 0.67 -0.34 0.34 0 0 Z " fill="#161616" transform="translate(142,35)"/>
<path d="M0 0 C5.3829085 1.99366982 8.16820806 6.33641612 10.625 11.25 C12.71151028 17.07564901 12.48434773 23.18772397 12.44604492 29.29882812 C12.43754404 31.36429975 12.46634641 33.42698841 12.49804688 35.4921875 C12.55098349 45.30013221 11.42718679 53.427569 4.75 60.9375 C-2.31549586 67.23113496 -9.05467873 67.32969403 -18.31640625 67.30078125 C-22.19384939 66.98417136 -25.31454144 66.19054067 -29 65 C-29 64.34 -29 63.68 -29 63 C-29.78375 62.773125 -30.5675 62.54625 -31.375 62.3125 C-34.65858937 60.67070532 -34.83731147 59.36310374 -36 56 C-35.42894531 56.42152344 -34.85789063 56.84304687 -34.26953125 57.27734375 C-27.35837738 61.94704231 -21.35069945 63.60149096 -13 63 C-4.61935824 61.18225677 0.33315603 58.01021686 5.09375 50.8515625 C8.01020683 44.88691599 7.63311181 38.33727177 7.57641602 31.84667969 C7.56256784 29.63583061 7.59666217 27.42924194 7.63476562 25.21875 C7.67961057 16.80801576 6.79430264 10.1614838 2 3 C1.34 2.01 0.68 1.02 0 0 Z " fill="#0E0E0E" transform="translate(242,37)"/>
<path d="M0 0 C0.99 0.33 1.98 0.66 3 1 C4.26596507 5.80870452 4.10901097 10.45072954 3.9375 15.375 C3.93556641 16.2 3.93363281 17.025 3.93164062 17.875 C3.68528251 24.47949403 1.54666546 27.4043198 -3 32 C-12.57251992 45.14972465 -16.92785389 62.22964997 -20 78 C-21.98 78.495 -21.98 78.495 -24 79 C-22.83775333 60.68868512 -17.86198153 40.64859389 -5.1875 26.8125 C-0.81800933 21.56144542 -1.18916524 15.9019289 -1.16796875 9.37890625 C-1 6 -1 6 1 4 C0.6814823 1.89179203 0.6814823 1.89179203 0 0 Z " fill="#111111" transform="translate(351,65)"/>
<path d="M0 0 C2.75 1.3125 2.75 1.3125 5 3 C5.8971875 3.5878125 5.8971875 3.5878125 6.8125 4.1875 C8.83346507 7.27213089 8.71404253 10.5113922 8 14 C5.44295652 17.64184981 3.77727291 18.77792202 -0.5 20 C-4.54871198 20 -5.95268945 19.63551183 -9 17 C-10.79561303 14.79981984 -12.118064 12.70921517 -13 10 C-12.44511374 6.46260009 -11.37087607 4.52197373 -9.3125 1.625 C-6.03913875 -0.6751998 -3.92083084 -0.48150554 0 0 Z " fill="#D2D2D2" transform="translate(381,39)"/>
<path d="M0 0 C0.99 0 1.98 0 3 0 C2.40339527 6.38887584 1.34374514 12.4436333 -0.1796875 18.671875 C-0.39311798 19.55731995 -0.60654846 20.44276489 -0.82644653 21.3550415 C-1.27580919 23.2111839 -1.72806692 25.06662762 -2.18310547 26.92138672 C-2.87592585 29.75378506 -3.55362979 32.58952703 -4.23046875 35.42578125 C-4.67096476 37.23720076 -5.11234054 39.0484066 -5.5546875 40.859375 C-5.75480438 41.70216003 -5.95492126 42.54494507 -6.16110229 43.41326904 C-7.59323768 49.17391763 -8.851341 53.56756067 -14 57 C-17.3984375 57.3359375 -17.3984375 57.3359375 -21.375 57.375 C-22.68210937 57.40335938 -23.98921875 57.43171875 -25.3359375 57.4609375 C-29.47959682 56.93966692 -31.13130676 55.9794536 -34 53 C-34 52.34 -34 51.68 -34 51 C-32.989375 51.33 -31.97875 51.66 -30.9375 52 C-25.95372244 53.39666347 -21.76456761 53.50900989 -16.75 52.0625 C-10.8962297 47.67217227 -10.32372042 38.3766154 -9 31.5 C-7.91100603 25.84276862 -6.55830847 20.48764788 -4.66455078 15.04443359 C-3.52095039 11.52624488 -3.06604031 7.93290155 -2.52734375 4.28515625 C-2 2 -2 2 0 0 Z " fill="#0A0A0A" transform="translate(143,105)"/>
<path d="M0 0 C4.15375819 1.82869857 5.71514227 4.06059012 8 8 C10.21642727 14.44647148 10.35196554 24.74735619 7.75 31.125 C6.02218967 33.96354554 4.19322951 36.50425607 2 39 C2.59748047 39.92619141 2.59748047 39.92619141 3.20703125 40.87109375 C7.42247611 47.60965159 11.7989269 54.74442201 11 63 C7.85597519 64.5720124 4.51052603 64.18446744 1.0625 64.1875 C0.33353516 64.19974609 -0.39542969 64.21199219 -1.14648438 64.22460938 C-4.9713391 64.23512685 -6.74356564 64.17095624 -10 62 C-10 61.34 -10 60.68 -10 60 C-4.39 60 1.22 60 7 60 C4.97312172 51.97044373 3.28151668 45.36376084 -1.92578125 38.76953125 C-2.28027344 38.18558594 -2.63476562 37.60164063 -3 37 C-1.87092799 33.61278396 -0.48555675 32.48555675 2 30 C4.71961767 26.10796765 4.36754097 21.8149238 4.375 17.25 C4.39949219 16.4765625 4.42398438 15.703125 4.44921875 14.90625 C4.47930059 8.92999107 2.98466317 5.16712439 0 0 Z " fill="#080808" transform="translate(189,39)"/>
<path d="M0 0 C4.38855677 1.72407587 6.91486937 4.82973873 9 9 C9.49813129 14.45494588 9.71117027 19.37023481 7.5 24.4375 C2.89798495 29.15456543 -1.46166375 32.24514721 -8.19921875 32.55859375 C-10.0290342 32.5441651 -11.85881506 32.5034102 -13.6875 32.4375 C-14.61111328 32.43169922 -15.53472656 32.42589844 -16.48632812 32.41992188 C-21.05274028 32.33773303 -24.86812818 32.1659707 -29 30 C-28.505 28.515 -28.505 28.515 -28 27 C-27.071875 27.165 -26.14375 27.33 -25.1875 27.5 C-16.81729128 28.64984685 -8.73014895 28.792755 -1 25 C1.92157211 22.66274231 2.81576138 21.55271587 4 18 C4.5453977 11.90622958 4.32215912 7.31545459 1 2 C0.67 1.34 0.34 0.68 0 0 Z " fill="#0A0A0A" transform="translate(46,130)"/>
<path d="M0 0 C0.99 0 1.98 0 3 0 C3.05057624 7.79619588 3.08568114 15.5923497 3.10986328 23.38867188 C3.11994089 26.04265931 3.13360313 28.6966356 3.15087891 31.35058594 C3.17504992 35.15823107 3.18646535 38.96572984 3.1953125 42.7734375 C3.20563507 43.96617279 3.21595764 45.15890808 3.22659302 46.38778687 C3.22674408 47.48877716 3.22689514 48.58976746 3.22705078 49.72412109 C3.23371262 51.1830629 3.23371262 51.1830629 3.24050903 52.67147827 C3 55 3 55 1 57 C-2.0390625 57.1953125 -2.0390625 57.1953125 -5.625 57.125 C-7.40777344 57.09792969 -7.40777344 57.09792969 -9.2265625 57.0703125 C-10.59941406 57.03550781 -10.59941406 57.03550781 -12 57 C-12 56.34 -12 55.68 -12 55 C-12.66 55 -13.32 55 -14 55 C-13.67 54.01 -13.34 53.02 -13 52 C-8.71 52 -4.42 52 0 52 C0 34.84 0 17.68 0 0 Z " fill="#010101" transform="translate(231,105)"/>
<path d="M0 0 C1.32 0.33 2.64 0.66 4 1 C4 5.95 4 10.9 4 16 C1.59940183 17.20029908 0.10639351 17.11459743 -2.5703125 17.09765625 C-3.46621094 17.09443359 -4.36210938 17.09121094 -5.28515625 17.08789062 C-6.22230469 17.07951172 -7.15945312 17.07113281 -8.125 17.0625 C-9.06988281 17.05798828 -10.01476562 17.05347656 -10.98828125 17.04882812 C-13.32558387 17.03702357 -15.66276061 17.02055759 -18 17 C-18 19.64 -18 22.28 -18 25 C-19.32 25.33 -20.64 25.66 -22 26 C-22.05391993 24.20866022 -22.09275571 22.41686101 -22.125 20.625 C-22.14820312 19.62726562 -22.17140625 18.62953125 -22.1953125 17.6015625 C-22 15 -22 15 -20 13 C-17.93701172 12.77294922 -17.93701172 12.77294922 -15.4296875 12.8046875 C-14.53378906 12.81113281 -13.63789062 12.81757812 -12.71484375 12.82421875 C-11.30912109 12.84935547 -11.30912109 12.84935547 -9.875 12.875 C-8.93011719 12.88402344 -7.98523438 12.89304687 -7.01171875 12.90234375 C-4.67437173 12.92595332 -2.33715451 12.96182506 0 13 C0 8.71 0 4.42 0 0 Z " fill="#0D0D0D" transform="translate(91,35)"/>
<path d="M0 0 C0.66 0 1.32 0 2 0 C2.28875 0.804375 2.5775 1.60875 2.875 2.4375 C3.73262568 5.1326468 3.73262568 5.1326468 6 6 C6.625 9.0625 6.625 9.0625 7 12 C6.34 11.67 5.68 11.34 5 11 C4.97494385 11.69150146 4.9498877 12.38300293 4.92407227 13.09545898 C4.80847839 16.20967866 4.68558758 19.32356789 4.5625 22.4375 C4.52318359 23.52611328 4.48386719 24.61472656 4.44335938 25.73632812 C4.40146484 26.77080078 4.35957031 27.80527344 4.31640625 28.87109375 C4.26141968 30.30859985 4.26141968 30.30859985 4.20532227 31.77514648 C4 34 4 34 3 35 C0.98035801 35.07244053 -1.04167124 35.08377188 -3.0625 35.0625 C-4.71958984 35.04896484 -4.71958984 35.04896484 -6.41015625 35.03515625 C-7.26480469 35.02355469 -8.11945313 35.01195312 -9 35 C-9.66 33.68 -10.32 32.36 -11 31 C-7.37 31 -3.74 31 0 31 C0 20.77 0 10.54 0 0 Z " fill="#202020" transform="translate(199,127)"/>
<path d="M0 0 C3.73518996 0.28787591 5.79699759 0.54435256 8.96484375 2.65625 C8.63484375 3.64625 8.30484375 4.63625 7.96484375 5.65625 C7.38734375 5.45 6.80984375 5.24375 6.21484375 5.03125 C3.4104752 4.56385524 2.31097556 5.11912916 -0.03515625 6.65625 C-2.13783461 10.86160671 -1.22008369 16.41093759 -1.22265625 21.03125 C-1.23490234 22.18109375 -1.24714844 23.3309375 -1.25976562 24.515625 C-1.26169922 25.62164062 -1.26363281 26.72765625 -1.265625 27.8671875 C-1.26973389 28.88087402 -1.27384277 29.89456055 -1.27807617 30.93896484 C-1.03293692 33.68107522 -0.4420784 35.31776904 0.96484375 37.65625 C-0.84765625 37.46875 -0.84765625 37.46875 -3.03515625 36.65625 C-7.09122868 31.1335195 -6.51430281 25.81783654 -6.47265625 19.21875 C-6.49263672 18.09919922 -6.51261719 16.97964844 -6.53320312 15.82617188 C-6.52505943 2.10404987 -6.52505943 2.10404987 0 0 Z " fill="#121212" transform="translate(223.03515625,47.34375)"/>
<path d="M0 0 C1.98 0.66 3.96 1.32 6 2 C5.34 9.59 4.68 17.18 4 25 C-6.77429011 23.20428498 -17.37342579 16.88955952 -25 9 C-26.26953125 6.2578125 -26.26953125 6.2578125 -27 4 C-25.02 4.99 -25.02 4.99 -23 6 C-23 6.66 -23 7.32 -23 8 C-22.48308594 8.2371875 -21.96617187 8.474375 -21.43359375 8.71875 C-17.52613817 10.77596578 -13.89666094 13.28241278 -10.22070312 15.72265625 C-6.90418415 17.89073661 -3.76815805 19.68436228 0 21 C0.09087891 19.19402344 0.09087891 19.19402344 0.18359375 17.3515625 C0.26799732 15.77602923 0.35264541 14.20050904 0.4375 12.625 C0.47681641 11.8309375 0.51613281 11.036875 0.55664062 10.21875 C0.88671875 4.2265625 0.88671875 4.2265625 2 2 C1.34 2 0.68 2 0 2 C0 1.34 0 0.68 0 0 Z " fill="#131313" transform="translate(300,138)"/>
<path d="M0 0 C1.32 0.33 2.64 0.66 4 1 C4.02692484 3.29160319 4.04636124 5.58329546 4.0625 7.875 C4.07410156 9.15117188 4.08570313 10.42734375 4.09765625 11.7421875 C4 15 4 15 3 17 C-1.32328804 17.0744013 -5.64623255 17.12871968 -9.9699707 17.16479492 C-11.43943782 17.17984066 -12.90886034 17.20028238 -14.37817383 17.22631836 C-16.4957177 17.26288955 -18.61266565 17.27976801 -20.73046875 17.29296875 C-22.00301514 17.3086792 -23.27556152 17.32438965 -24.58666992 17.34057617 C-28.26312068 16.97374627 -30.08740861 16.22553206 -33 14 C-34.8125 11.3125 -34.8125 11.3125 -36 9 C-35.34 9 -34.68 9 -34 9 C-33.67 9.66 -33.34 10.32 -33 11 C-29.13319502 12.98949058 -25.91406175 13.23615224 -21.60546875 13.1953125 C-20.40341797 13.18886719 -19.20136719 13.18242188 -17.96289062 13.17578125 C-16.71701172 13.15902344 -15.47113281 13.14226562 -14.1875 13.125 C-12.92228516 13.11597656 -11.65707031 13.10695313 -10.35351562 13.09765625 C-7.23559595 13.07412478 -4.11777378 13.03825489 -1 13 C-0.505 6.565 -0.505 6.565 0 0 Z " fill="#080808" transform="translate(91,86)"/>
<path d="M0 0 C1.32 0.33 2.64 0.66 4 1 C4.02687279 2.81242052 4.04633715 4.62495233 4.0625 6.4375 C4.07410156 7.44683594 4.08570312 8.45617187 4.09765625 9.49609375 C4 12 4 12 3 13 C1.58672053 13.15620555 0.1664541 13.25056173 -1.25390625 13.31640625 C-2.53491211 13.37924805 -2.53491211 13.37924805 -3.84179688 13.44335938 C-4.73962891 13.48267578 -5.63746094 13.52199219 -6.5625 13.5625 C-7.46419922 13.60568359 -8.36589844 13.64886719 -9.29492188 13.69335938 C-11.52978485 13.79978142 -13.76476308 13.90179988 -16 14 C-16.66 16.31 -17.32 18.62 -18 21 C-18.99 21 -19.98 21 -21 21 C-21.05395478 19.37536158 -21.09277195 17.75021459 -21.125 16.125 C-21.14820312 15.22007813 -21.17140625 14.31515625 -21.1953125 13.3828125 C-21 11 -21 11 -19 9 C-17.02880859 8.77294922 -17.02880859 8.77294922 -14.6484375 8.8046875 C-13.79765625 8.81113281 -12.946875 8.81757812 -12.0703125 8.82421875 C-10.73613281 8.84935547 -10.73613281 8.84935547 -9.375 8.875 C-8.02921875 8.88853516 -8.02921875 8.88853516 -6.65625 8.90234375 C-4.43738678 8.92594868 -2.2186603 8.96182038 0 9 C0 6.03 0 3.06 0 0 Z " fill="#121212" transform="translate(90,105)"/>
<path d="M0 0 C0.99 0.33 1.98 0.66 3 1 C3.02687279 2.81242052 3.04633715 4.62495233 3.0625 6.4375 C3.07410156 7.44683594 3.08570313 8.45617187 3.09765625 9.49609375 C3 12 3 12 2 13 C0.58429877 13.08651611 -0.835595 13.10704904 -2.25390625 13.09765625 C-3.10791016 13.09443359 -3.96191406 13.09121094 -4.84179688 13.08789062 C-5.73962891 13.07951172 -6.63746094 13.07113281 -7.5625 13.0625 C-8.46419922 13.05798828 -9.36589844 13.05347656 -10.29492188 13.04882812 C-12.52997589 13.03700244 -14.76499602 13.01906638 -17 13 C-17 15.97 -17 18.94 -17 22 C-18.32 21.34 -19.64 20.68 -21 20 C-21 16.37 -21 12.74 -21 9 C-14.4 9 -7.8 9 -1 9 C-1 6.36 -1 3.72 -1 1 C-0.67 0.67 -0.34 0.34 0 0 Z " fill="#171717" transform="translate(180,126)"/>
<path d="M0 0 C0.99 0.33 1.98 0.66 3 1 C3 4.96 3 8.92 3 13 C-3.6 13 -10.2 13 -17 13 C-17 15.97 -17 18.94 -17 22 C-18.32 21.34 -19.64 20.68 -21 20 C-21 16.37 -21 12.74 -21 9 C-14.07 9 -7.14 9 0 9 C0 6.03 0 3.06 0 0 Z " fill="#141414" transform="translate(90,126)"/>
<path d="M0 0 C5 0 5 0 7.3125 1.875 C9 4 9 4 9 6 C7.02 5.34 5.04 4.68 3 4 C3 10.6 3 17.2 3 24 C-0.03429677 25.51714839 -3.17601667 25.14363916 -6.5 25.125 C-7.18964844 25.12886719 -7.87929687 25.13273437 -8.58984375 25.13671875 C-13.74666707 25.12666646 -13.74666707 25.12666646 -16 24 C-16 23.01 -16 22.02 -16 21 C-11.05 20.67 -6.1 20.34 -1 20 C-0.67 13.4 -0.34 6.8 0 0 Z " fill="#060606" transform="translate(164,78)"/>
<path d="M0 0 C0.99 0 1.98 0 3 0 C3 4.29 3 8.58 3 13 C-6.405 13.495 -6.405 13.495 -16 14 C-16.66 16.31 -17.32 18.62 -18 21 C-18.99 21 -19.98 21 -21 21 C-21.05395478 19.37536158 -21.09277195 17.75021459 -21.125 16.125 C-21.14820313 15.22007813 -21.17140625 14.31515625 -21.1953125 13.3828125 C-21 11 -21 11 -19 9 C-17.02880859 8.77294922 -17.02880859 8.77294922 -14.6484375 8.8046875 C-13.79765625 8.81113281 -12.946875 8.81757812 -12.0703125 8.82421875 C-10.73613281 8.84935547 -10.73613281 8.84935547 -9.375 8.875 C-8.02921875 8.88853516 -8.02921875 8.88853516 -6.65625 8.90234375 C-4.43738678 8.92594868 -2.2186603 8.96182038 0 9 C0 6.03 0 3.06 0 0 Z " fill="#0E0E0E" transform="translate(180,105)"/>
<path d="M0 0 C4.62 0 9.24 0 14 0 C13.34 1.32 12.68 2.64 12 4 C9.03 4 6.06 4 3 4 C3 6.31 3 8.62 3 11 C-3.73177247 13.29166723 -9.85343013 14.32487152 -16.5625 11.5 C-17.366875 11.005 -18.17125 10.51 -19 10 C-18.67 9.34 -18.34 8.68 -18 8 C-12.06 8 -6.12 8 0 8 C0 5.36 0 2.72 0 0 Z " fill="#151515" transform="translate(312,84)"/>
<path d="M0 0 C1.32 0 2.64 0 4 0 C4 3.96 4 7.92 4 12 C0.18906326 13.90546837 -4.36348107 13.56967175 -8.5625 13.8125 C-10.00979492 13.92754883 -10.00979492 13.92754883 -11.48632812 14.04492188 C-17.85589174 14.40189269 -23.75092625 14.01245758 -29 10 C-29.74047852 7.85864258 -29.74047852 7.85864258 -30 6 C-29.14341797 6.32484375 -29.14341797 6.32484375 -28.26953125 6.65625 C-19.18887479 9.77456764 -10.39237874 9.74349545 -1 8 C-0.67 5.36 -0.34 2.72 0 0 Z " fill="#0A0A0A" transform="translate(90,149)"/>
<path d="M0 0 C0.99 0.33 1.98 0.66 3 1 C3 5.95 3 10.9 3 16 C-3.93 16 -10.86 16 -18 16 C-18 18.64 -18 21.28 -18 24 C-19.32 23.67 -20.64 23.34 -22 23 C-22 19.7 -22 16.4 -22 13 C-11.605 12.505 -11.605 12.505 -1 12 C-0.67 8.04 -0.34 4.08 0 0 Z " fill="#050505" transform="translate(91,61)"/>
<path d="M0 0 C1.32 0.66 2.64 1.32 4 2 C4.02698189 3.62490954 4.04638757 5.24994633 4.0625 6.875 C4.07410156 7.77992187 4.08570312 8.68484375 4.09765625 9.6171875 C4 12 4 12 3 14 C-3.6 14 -10.2 14 -17 14 C-17.33 14.99 -17.66 15.98 -18 17 C-18.99 17 -19.98 17 -21 17 C-21.625 14.125 -21.625 14.125 -22 11 C-20 9 -20 9 -17.96875 8.76953125 C-11.92612799 8.87470347 -6.0057218 9.31363179 0 10 C0 6.7 0 3.4 0 0 Z " fill="#0E0E0E" transform="translate(50,105)"/>
<path d="M0 0 C0.99 0 1.98 0 3 0 C4.17325173 5.13779645 5.33032671 10.27887803 6.47290039 15.42358398 C6.86338619 17.1713111 7.25818735 18.91808011 7.6574707 20.66381836 C8.2323961 23.18100109 8.7914419 25.7012816 9.34765625 28.22265625 C9.52780777 28.99585709 9.70795929 29.76905792 9.89356995 30.56568909 C10.94233825 35.41049574 10.99446059 39.13474946 10 44 C9.34 43.67 8.68 43.34 8 43 C7.34570312 40.71850586 7.34570312 40.71850586 6.78125 37.71484375 C6.57113281 36.62623047 6.36101562 35.53761719 6.14453125 34.41601562 C5.93183594 33.26810547 5.71914062 32.12019531 5.5 30.9375 C5.07469589 28.69627622 4.64764933 26.4553823 4.21875 24.21484375 C4.01427246 23.14282715 3.80979492 22.07081055 3.59912109 20.96630859 C3.09371863 18.46401034 2.52575128 16.00471856 1.8828125 13.53515625 C1.11900134 10.4765319 0.63610728 7.6332873 0.375 4.5 C0.30023438 3.6440625 0.22546875 2.788125 0.1484375 1.90625 C0.09945312 1.2771875 0.05046875 0.648125 0 0 Z " fill="#0E0E0E" transform="translate(110,105)"/>
<path d="M0 0 C1.485 0.495 1.485 0.495 3 1 C3.02686553 2.97909398 3.04633375 4.95828971 3.0625 6.9375 C3.07410156 8.03964844 3.08570313 9.14179688 3.09765625 10.27734375 C3 13 3 13 2 14 C-1.86669037 14.3103111 -5.74740367 14.27856538 -9.625 14.3125 C-10.70652344 14.34150391 -11.78804687 14.37050781 -12.90234375 14.40039062 C-19.50732376 14.4528111 -23.66760391 14.0159377 -29 10 C-30.4375 7.75 -30.4375 7.75 -31 6 C-30.34 6 -29.68 6 -29 6 C-29 6.66 -29 7.32 -29 8 C-19.64941089 10.49349043 -10.52415563 10.73166466 -1 9 C-0.67 6.03 -0.34 3.06 0 0 Z " fill="#050505" transform="translate(180,148)"/>
<path d="M0 0 C1.52888746 3.46011373 2.25669488 5.21280236 1.0625 8.875 C-1 11 -1 11 -4.5 11.5625 C-8 11 -8 11 -10 9.3125 C-11.27800253 6.35711914 -11.08051862 5.01001617 -10 2 C-7.47684623 -2.20525628 -4.31614925 -0.89580456 0 0 Z " fill="#414141" transform="translate(382,42)"/>
<path d="M0 0 C0.99 0 1.98 0 3 0 C4.5078125 2.0546875 4.5078125 2.0546875 6.125 4.875 C9.81103619 10.92288712 14.15650866 15.86246871 19 21 C25.55744338 28.15671764 31.83344803 35.50744625 38 43 C37.34 43.66 36.68 44.32 36 45 C35.33355469 44.20078125 34.66710937 43.4015625 33.98046875 42.578125 C29.26158823 36.94591276 24.49425906 31.39062883 19.5 26 C15.60429044 21.78274873 11.75836069 17.52792991 8 13.1875 C7.54302734 12.67251953 7.08605469 12.15753906 6.61523438 11.62695312 C3.4600283 7.94193733 1.70756248 4.47673453 0 0 Z " fill="#060606" transform="translate(323,1)"/>
<path d="M0 0 C1.93875 -0.020625 3.8775 -0.04125 5.875 -0.0625 C6.96554688 -0.07410156 8.05609375 -0.08570313 9.1796875 -0.09765625 C12 0 12 0 14 1 C14 1.99 14 2.98 14 4 C10.7 4 7.4 4 4 4 C4 7.96 4 11.92 4 16 C2.68 16.33 1.36 16.66 0 17 C0 11.39 0 5.78 0 0 Z " fill="#232323" transform="translate(16,48)"/>
<path d="M0 0 C5.2295082 2.3442623 5.2295082 2.3442623 7 5 C7.63165455 9.89532274 7.79231722 11.8715482 4.9375 15.9375 C1.42176604 18.40599406 -0.71383323 19 -5 19 C-7.875 17.75 -7.875 17.75 -10 16 C-10.33 15.01 -10.66 14.02 -11 13 C-10.01 13.33 -9.02 13.66 -8 14 C-4.12153534 14.3525877 -1.84399853 14.52749908 1.5 12.4375 C3.32810126 9.97073387 3.32810126 9.97073387 2.875 6.4375 C2.17969518 2.90954155 2.17969518 2.90954155 0 0 Z " fill="#050505" transform="translate(382,40)"/>
<path d="M0 0 C5.83987896 2.23440913 7.80500161 7.99389549 10.6875 13.1875 C11.28111328 14.21681641 11.87472656 15.24613281 12.48632812 16.30664062 C15.4475473 21.57740816 17.76730882 25.90693832 18 32 C15.80154788 29.17857205 13.94824512 26.30332923 12.1875 23.19140625 C11.66929687 22.27939453 11.15109375 21.36738281 10.6171875 20.42773438 C10.08351562 19.48220703 9.54984375 18.53667969 9 17.5625 C7.93796137 15.68854053 6.87547549 13.81483445 5.8125 11.94140625 C5.34457031 11.11326416 4.87664062 10.28512207 4.39453125 9.43188477 C3.40520673 7.7066289 2.37754219 6.00310625 1.32421875 4.31616211 C0 2 0 2 0 0 Z " fill="#0E0E0E" transform="translate(201,105)"/>
<path d="M0 0 C4.29 0 8.58 0 13 0 C13 0.99 13 1.98 13 3 C9.7 3 6.4 3 3 3 C3 7.29 3 11.58 3 16 C2.01 16 1.02 16 0 16 C0 10.72 0 5.44 0 0 Z " fill="#040404" transform="translate(164,49)"/>
<path d="M0 0 C1.32 0.66 2.64 1.32 4 2 C4.02698189 3.62490954 4.04638757 5.24994633 4.0625 6.875 C4.07410156 7.77992187 4.08570313 8.68484375 4.09765625 9.6171875 C4 12 4 12 3 14 C0.36 14 -2.28 14 -5 14 C-4.67 13.01 -4.34 12.02 -4 11 C-2.68 11 -1.36 11 0 11 C0 7.37 0 3.74 0 0 Z " fill="#040404" transform="translate(50,105)"/>
<path d="M0 0 C4.62 0 9.24 0 14 0 C14 1.32 14 2.64 14 4 C10.04 4 6.08 4 2 4 C1.34 2.68 0.68 1.36 0 0 Z " fill="#0C0C0C" transform="translate(97,48)"/>
<path d="M0 0 C0.66 0 1.32 0 2 0 C2 0.66 2 1.32 2 2 C2.70769531 2.26039063 3.41539063 2.52078125 4.14453125 2.7890625 C7.19482624 4.08262125 9.87843995 5.6198165 12.6875 7.375 C13.64011719 7.96023437 14.59273437 8.54546875 15.57421875 9.1484375 C17.99618728 10.99708981 18.9413563 12.18933193 20 15 C17.76764303 13.75543833 15.53920338 12.5046061 13.3125 11.25 C12.68666016 10.90195313 12.06082031 10.55390625 11.41601562 10.1953125 C1.53629032 4.60887097 1.53629032 4.60887097 0 0 Z " fill="#0B0B0B" transform="translate(18,128)"/>
<path d="M0 0 C2.31 0.33 4.62 0.66 7 1 C8.1875 3.6875 8.1875 3.6875 9 7 C7.875 9.875 7.875 9.875 6 12 C4.68 12 3.36 12 2 12 C2 11.34 2 10.68 2 10 C2.99 10 3.98 10 5 10 C5 7.69 5 5.38 5 3 C2.03 2.505 2.03 2.505 -1 2 C-0.67 1.34 -0.34 0.68 0 0 Z " fill="#171717" transform="translate(375,41)"/>
<path d="M0 0 C0.99 0 1.98 0 3 0 C3.33 4.62 3.66 9.24 4 14 C3.01 14.33 2.02 14.66 1 15 C-0.03590199 9.94997778 -0.10251672 5.12583611 0 0 Z " fill="#010101" transform="translate(384,93)"/>
<path d="M0 0 C0.33 0.66 0.66 1.32 1 2 C-0.093125 2.0825 -1.18625 2.165 -2.3125 2.25 C-5.97499282 2.65073293 -5.97499282 2.65073293 -7.875 4.8125 C-8.94649838 6.89596908 -9.58922322 8.69965002 -10 11 C-10.99 10.67 -11.98 10.34 -13 10 C-10.8451823 2.09900175 -8.39669368 -0.64589951 0 0 Z " fill="#F6F6F6" transform="translate(381,39)"/>
<path d="M0 0 C1.98 0 3.96 0 6 0 C6.93065133 2.60582371 7.14917407 3.64198224 6.0625 6.25 C5.5365625 7.11625 5.5365625 7.11625 5 8 C3.875 4.25 3.875 4.25 5 2 C4.01 2 3.02 2 2 2 C2 3.98 2 5.96 2 8 C1.34 8 0.68 8 0 8 C0 5.36 0 2.72 0 0 Z " fill="#E6E6E6" transform="translate(374,43)"/>
<path d="M0 0 C3.96 0.33 7.92 0.66 12 1 C10.68 1.33 9.36 1.66 8 2 C8.33 2.99 8.66 3.98 9 5 C6.69 5 4.38 5 2 5 C2 4.34 2 3.68 2 3 C1.34 3 0.68 3 0 3 C0 2.01 0 1.02 0 0 Z " fill="#1D1D1D" transform="translate(217,157)"/>
<path d="M0 0 C0.66 0 1.32 0 2 0 C2 0.66 2 1.32 2 2 C6.455 2.99 6.455 2.99 11 4 C8 6 8 6 5.5 5.9375 C2.21774924 4.70665597 1.50179898 3.08264 0 0 Z " fill="#1A1A1A" transform="translate(149,154)"/>
<path d="M0 0 C0.33 0 0.66 0 1 0 C1.33 2.97 1.66 5.94 2 9 C1.01 8.67 0.02 8.34 -1 8 C-1.625 5.6875 -1.625 5.6875 -2 3 C-1.34 2.01 -0.68 1.02 0 0 Z " fill="#0F0F0F" transform="translate(373,43)"/>
<path d="M0 0 C0.391875 0.474375 0.78375 0.94875 1.1875 1.4375 C3.40808374 3.35179633 5.13375709 3.61266988 8 4 C7.01 4.66 6.02 5.32 5 6 C1.8125 5.125 1.8125 5.125 -1 4 C-1 1 -1 1 0 0 Z " fill="#B1B1B1" transform="translate(371,49)"/>
<path d="M0 0 C1.98 0 3.96 0 6 0 C6.33 0.66 6.66 1.32 7 2 C5.02 2.33 3.04 2.66 1 3 C0.67 2.01 0.34 1.02 0 0 Z " fill="#010101" transform="translate(189,159)"/>
<path d="M0 0 C1.98 1.65 3.96 3.3 6 5 C5.67 5.99 5.34 6.98 5 8 C4.38125 7.21625 3.7625 6.4325 3.125 5.625 C1.10141339 3.03162353 1.10141339 3.03162353 -1 1 C-0.67 0.67 -0.34 0.34 0 0 Z " fill="#2E2E2E" transform="translate(329,38)"/>
<path d="" fill="#060606" transform="translate(0,0)"/>
<path d="" fill="#FFFFFF" transform="translate(0,0)"/>
<path d="" fill="#060606" transform="translate(0,0)"/>
<path d="" fill="#060606" transform="translate(0,0)"/>
<path d="" fill="#060606" transform="translate(0,0)"/>
<path d="" fill="#060606" transform="translate(0,0)"/>
<path d="" fill="#060606" transform="translate(0,0)"/>
<path d="" fill="#060606" transform="translate(0,0)"/>
</svg>
